<svg xmlns="http://www.w3.org/2000/svg" xmlns:xlink="http://www.w3.org/1999/xlink" xmlns:lucid="lucid" width="2320" height="1000"><g transform="translate(2420 980)" lucid:page-tab-id="0_0"><path d="M-2500-1000H0V0h-2500z" fill="#fff"/><path d="M-520-914a6 6 0 0 1 6-6h348a6 6 0 0 1 6 6v868a6 6 0 0 1-6 6h-348a6 6 0 0 1-6-6z" fill="#ee4e8b" fill-opacity=".1"/><path d="M-1320-914a6 6 0 0 1 6-6h628a6 6 0 0 1 6 6v348a6 6 0 0 1-6 6h-628a6 6 0 0 1-6-6z" fill="#147eba" fill-opacity=".1"/><path d="M-1760-954a6 6 0 0 1 6-6h1628a6 6 0 0 1 6 6V-6a6 6 0 0 1-6 6h-1628a6 6 0 0 1-6-6z" fill="#fff" fill-opacity="0"/><path d="M-1759.1-957.13l.25-.4.6-.7.72-.62.4-.25m1.73-.72l.46-.1.94-.08h1.5m2 0h3m2 0h3m1.98 0h3m2 0h3m2 0h3m1.98 0h3m2 0h3m2 0h3m2 0h2.98m2 0h3m2 0h3m2 0h2.98m2 0h3m2 0h3m2 0h3m1.98 0h3m2 0h3m2 0h3m1.98 0h3m2 0h3m2 0h3m2 0h2.98m2 0h3m2 0h3m2 0h3m1.98 0h3m2 0h3m2 0h3m1.98 0h3m2 0h3m2 0h3m2 0h2.98m2 0h3m2 0h3m2 0h2.98m2 0h3m2 0h3m2 0h3m1.98 0h3m2 0h3m2 0h3m1.98 0h3m2 0h3m2 0h3m2 0h2.98m2 0h3m2 0h3m2 0h2.98m2 0h3m2 0h3m2 0h2.98m2 0h3m2 0h3m2 0h3m1.98 0h3m2 0h3m2 0h3m2 0h2.98m2 0h3m2 0h3m2 0h2.98m2 0h3m2 0h3m2 0h3m1.98 0h3m2 0h3m2 0h3m2 0h2.98m2 0h3m2 0h3m2 0h2.98m2 0h3m2 0h3m2 0h2.98m2 0h3m2 0h3m2 0h3m1.98 0h3m2 0h3m2 0h3m2 0h2.98m2 0h3m2 0h3m2 0h2.98m2 0h3m2 0h3m2 0h2.98m2 0h3m2 0h3m2 0h3m1.98 0h3m2 0h3m2 0h3m1.98 0h3m2 0h3m2 0h3m2 0h2.98m2 0h3m2 0h3m2 0h2.98m2 0h3m2 0h3m2 0h3m1.98 0h3m2 0h3m2 0h3m2 0h2.98m2 0h3m2 0h3m2 0h2.98m2 0h3m2 0h3m2 0h3m1.98 0h3m2 0h3m2 0h3m1.98 0h3m2 0h3m2 0h3m2 0h2.98m2 0h3m2 0h3m2 0h2.98m2 0h3m2 0h3m2 0h2.98m2 0h3m2 0h3m2 0h3m1.98 0h3m2 0h3m2 0h3m2 0h2.98m2 0h3m2 0h3m2 0h2.98m2 0h3m2 0h3m2 0h2.98m2 0h3m2 0h3m2 0h3m1.98 0h3m2 0h3m2 0h3m2 0h2.98m2 0h3m2 0h3m2 0h2.98m2 0h3m2 0h3m2 0h3m1.98 0h3m2 0h3m2 0h3m2 0h2.98m2 0h3m2 0h3m2 0h2.98m2 0h3m2 0h3m2 0h2.98m2 0h3m2 0h3m2 0h3m1.98 0h3m2 0h3m2 0h3m2 0h2.98m2 0h3m2 0h3m2 0h2.98m2 0h3m2 0h3m2 0h2.98m2 0h3m2 0h3m2 0h3m1.98 0h3m2 0h3m2 0h3m2 0h2.98m2 0h3m2 0h3m2 0h2.98m2 0h3m2 0h3m2 0h3m1.98 0h3m2 0h3m2 0h3m1.98 0h3m2 0h3m2 0h3m2 0h2.98m2 0h3m2 0h3m2 0h2.98m2 0h3m2 0h3m2 0h3m1.98 0h3m2 0h3m2 0h3m1.98 0h3m2 0h3m2 0h3m2 0h2.98m2 0h3m2 0h3m2 0h2.98m2 0h3m2 0h3m2 0h2.98m2 0h3m2 0h3m2 0h3m1.98 0h3m2 0h3m2 0h3m2 0h2.98m2 0h3m2 0h3m2 0h2.98m2 0h3m2 0h3m2 0h3m1.98 0h3m2 0h3m2 0h3m2 0h2.98m2 0h3m2 0h3m2 0h2.98m2 0h3m2 0h3m2 0h2.98m2 0h3m2 0h3m2 0h3m1.98 0h3m2 0h3m2 0h3m2 0h2.98m2 0h3m2 0h3m2 0h2.98m2 0h3m2 0h3m2 0h2.98m2 0h3m2 0h3m2 0h3m1.98 0h3m2 0h3m2 0h3m2 0h2.98m2 0h3m2 0h3m2 0h2.98m2 0h3m2 0h3m2 0h3m1.98 0h3m2 0h3m2 0h3m1.98 0h3m2 0h3m2 0h3m2 0h2.98m2 0h3m2 0h3m2 0h2.98m2 0h3m2 0h3m2 0h3m1.98 0h3m2 0h3m2 0h3m1.98 0h3m2 0h3m2 0h3m2 0h2.98m2 0h3m2 0h3m2 0h2.98m2 0h3m2 0h3m2 0h3m1.98 0h3m2 0h3m2 0h3m1.98 0h3m2 0h3m2 0h3m2 0h2.98m2 0h3m2 0h3m2 0h2.98m2 0h3m2 0h3m2 0h3m1.98 0h3m2 0h3m2 0h3m2 0h2.98m2 0h3m2 0h3m2 0h2.98m2 0h3m2 0h3m2 0h2.98m2 0h3m2 0h3m2 0h3m1.98 0h3m2 0h3m2 0h3m1.98 0h3m2 0h3m2 0h3m2 0h2.98m2 0h3m2 0h3m2 0h2.98m2 0h1.5l.94.07.46.1m1.72.73l.4.25.72.6.6.72.26.4m.72 1.73l.1.46.08.94v1.5m0 2v3m0 1.98v3m0 2v3m0 1.98v3m0 2v2.98m0 2v3m0 2v2.98m0 2v3m0 2v2.98m0 2v3m0 2v2.98m0 2v3m0 2v2.98m0 2v3m0 2v2.98m0 2v3m0 1.98v3m0 2v3m0 1.98v3m0 2v3m0 1.98v3m0 2v3m0 1.98v3m0 2v2.98m0 2v3m0 2v2.98m0 2v3m0 2v2.98m0 2v3m0 2v2.98m0 2v3m0 2v2.98m0 2v3m0 2v2.98m0 2v3m0 1.98v3m0 2v3m0 1.98v3m0 2v3m0 1.98v3m0 2v3m0 1.98v3m0 2v2.98m0 2v3m0 2v2.98m0 2v3m0 2v2.98m0 2v3m0 2v2.98m0 2v3m0 2v2.98m0 2v3m0 2v2.98m0 2v3m0 1.98v3m0 2v3m0 1.98v3m0 2v3m0 1.98v3m0 2v3m0 1.98v3m0 2v2.98m0 2v3m0 2v2.98m0 2v3m0 2v2.98m0 2v3m0 2v2.98m0 2v3m0 2v2.98m0 2v3m0 2v2.98m0 2v3m0 1.98v3m0 2v3m0 1.98v3m0 2v3m0 1.98v3m0 2v3m0 1.98v3m0 2v2.98m0 2v3m0 2v2.98m0 2v3m0 2v2.98m0 2v3m0 2v2.98m0 2v3m0 2v2.98m0 2v3m0 2v2.98m0 2v3m0 1.98v3m0 2v3m0 1.98v3m0 2v3m0 1.98v3m0 2v2.98m0 2v3m0 2v2.98m0 2v3m0 2v2.98m0 2v3m0 2v2.98m0 2v3m0 2v2.98m0 2v3m0 2v2.98m0 2v3m0 2v2.98m0 2v3m0 1.98v3m0 2v3m0 1.98v3m0 2v3m0 1.98v3m0 2v3m0 1.98v3m0 2v2.98m0 2v3m0 2v2.98m0 2v3m0 2v2.98m0 2v3m0 2v2.98m0 2v3m0 2v2.98m0 2v3m0 1.98v3m0 2v3m0 1.98v3m0 2v3m0 1.98v3m0 2v3m0 1.98v3m0 2v3m0 1.98v3m0 2v2.98m0 2v3m0 2v2.98m0 2v3m0 2v2.98m0 2v3m0 2v2.98m0 2v3m0 2v2.98m0 2v3m0 1.98v3m0 2v3m0 1.98v3m0 2v3m0 1.98v3m0 2v3m0 1.98v3m0 2v3m0 1.98v3m0 2v2.98m0 2v3m0 2v2.98m0 2v3m0 2v2.98m0 2v3m0 2v2.98m0 2v3m0 2v2.98m0 2v3m0 1.98v3m0 2v3m0 1.98v3m0 2v3m0 1.98v3m0 2v3m0 1.98v3m0 2v2.98m0 2v3m0 2v2.98m0 2v3m0 2v2.98m0 2v3m0 2v2.98m0 2v3m0 2v2.98m0 2v3m0 2v2.98m0 2v3m0 2v2.98m0 2v3m0 1.98v3m0 2v3m0 1.98V-6l-.07.94-.1.46m-.73 1.72l-.25.4-.6.72-.72.6-.4.26m-1.73.72l-.46.1-.94.08h-1.5m-2 0h-3m-2 0h-3m-1.98 0h-3m-2 0h-3m-2 0h-3m-2 0h-2.98m-2 0h-3m-2 0h-3m-2 0h-2.98m-2 0h-3m-2 0h-3m-2 0h-3m-1.98 0h-3m-2 0h-3m-2 0h-3m-1.98 0h-3m-2 0h-3m-2 0h-3m-1.98 0h-3m-2 0h-3m-2 0h-3m-2 0h-2.98m-2 0h-3m-2 0h-3m-2 0h-2.98m-2 0h-3m-2 0h-3m-2 0h-3m-1.98 0h-3m-2 0h-3m-2 0h-3m-2 0h-2.98m-2 0h-3m-2 0h-3m-2 0h-2.98m-2 0h-3m-2 0h-3m-2 0h-3m-1.98 0h-3m-2 0h-3m-2 0h-3m-1.98 0h-3m-2 0h-3m-2 0h-3m-2 0h-2.98m-2 0h-3m-2 0h-3m-2 0h-2.98m-2 0h-3m-2 0h-3m-2 0h-3m-1.98 0h-3m-2 0h-3m-2 0h-3m-1.98 0h-3m-2 0h-3m-2 0h-3m-2 0h-2.98m-2 0h-3m-2 0h-3m-2 0h-2.98m-2 0h-3m-2 0h-3m-2 0h-3m-1.98 0h-3m-2 0h-3m-2 0h-3m-1.98 0h-3m-2 0h-3m-2 0h-3m-2 0h-2.98m-2 0h-3m-2 0h-3m-2 0h-2.98m-2 0h-3m-2 0h-3m-2 0h-3M-514 0h-3m-2 0h-3m-2 0h-3m-2 0H-532m-2 0h-3m-2 0h-3m-2 0h-2.98m-2 0h-3m-2 0h-3m-2 0h-2.98m-2 0h-3m-2 0h-3m-2 0h-3m-1.98 0h-3m-2 0h-3m-2 0h-3m-1.98 0h-3m-2 0h-3m-2 0h-3m-2 0h-2.98m-2 0h-3m-2 0h-3m-2 0h-3m-1.98 0h-3m-2 0h-3m-2 0h-3m-1.98 0h-3m-2 0h-3m-2 0h-3m-2 0h-2.98m-2 0h-3m-2 0h-3m-2 0h-2.98m-2 0h-3m-2 0h-3m-2 0h-2.98m-2 0h-3m-2 0h-3m-2 0h-3m-1.98 0h-3m-2 0h-3m-2 0h-3m-2 0h-2.98m-2 0h-3m-2 0h-3m-2 0h-2.98m-2 0h-3m-2 0h-3m-2 0h-3m-1.98 0h-3m-2 0h-3m-2 0h-3m-1.98 0h-3m-2 0h-3m-2 0h-3m-2 0h-2.98m-2 0h-3m-2 0h-3m-2 0h-2.98m-2 0h-3m-2 0h-3m-2 0h-3m-1.98 0h-3m-2 0h-3m-2 0h-3m-2 0h-2.98m-2 0h-3m-2 0h-3m-2 0h-2.98m-2 0h-3m-2 0h-3m-2 0h-2.98m-2 0h-3m-2 0h-3m-2 0h-3m-1.98 0h-3m-2 0h-3m-2 0h-3m-2 0h-2.98m-2 0h-3m-2 0h-3m-2 0h-2.98m-2 0h-3m-2 0h-3m-2 0h-2.98m-2 0h-3m-2 0h-3m-2 0h-3m-1.98 0h-3m-2 0h-3m-2 0h-3m-2 0h-2.98m-2 0h-3m-2 0h-3m-2 0h-2.98m-2 0h-3m-2 0h-3m-2 0h-2.98m-2 0h-3m-2 0h-3m-2 0h-3m-1.98 0h-3m-2 0h-3m-2 0h-3m-1.98 0h-3m-2 0h-3m-2 0h-3m-2 0h-2.98m-2 0h-3m-2 0h-3m-2 0h-3m-1.98 0h-3m-2 0h-3m-2 0h-3m-1.98 0h-3m-2 0h-3m-2 0h-3m-2 0h-2.98m-2 0h-3m-2 0h-3m-2 0h-2.98m-2 0h-3m-2 0h-3m-2 0h-3m-1.98 0h-3m-2 0h-3m-2 0h-3m-1.98 0h-3m-2 0h-3m-2 0h-3m-2 0h-2.98m-2 0h-3m-2 0h-3m-2 0h-2.98m-2 0h-3m-2 0h-3m-2 0h-2.98m-2 0h-3m-2 0h-3m-2 0h-3m-1.98 0h-3m-2 0h-3m-2 0h-3m-2 0h-2.98m-2 0h-3m-2 0h-3m-2 0h-2.98m-2 0h-3m-2 0h-3m-2 0h-3m-1.98 0h-3m-2 0h-3m-2 0h-3m-2 0h-2.98m-2 0h-3m-2 0h-3m-2 0h-2.98m-2 0h-3m-2 0h-3m-2 0h-2.98m-2 0h-3m-2 0h-3m-2 0h-3m-1.98 0h-3m-2 0h-3m-2 0h-3m-2 0h-2.98m-2 0h-3m-2 0h-3m-2 0h-2.98m-2 0h-3m-2 0h-3m-2 0h-2.98m-2 0h-3m-2 0h-3m-2 0h-3m-1.98 0h-3m-2 0h-3m-2 0h-3m-1.98 0h-3m-2 0h-3m-2 0h-3m-2 0h-2.98m-2 0h-3m-2 0h-3m-2 0h-2.98m-2 0h-3m-2 0h-3m-2 0h-3m-1.98 0h-3m-2 0h-3m-2 0h-3m-2 0h-2.98m-2 0h-3m-2 0h-3m-2 0h-2.98m-2 0h-3m-2 0h-3m-2 0h-3m-1.98 0h-3m-2 0h-3m-2 0h-3m-1.98 0h-3m-2 0h-3m-2 0h-3m-2 0h-2.98m-2 0h-3m-2 0h-3m-2 0h-2.98m-2 0h-3m-2 0h-3m-2 0h-2.98m-2 0h-3m-2 0h-3m-2 0h-3m-1.98 0h-3m-2 0h-3m-2 0h-3m-2 0h-2.98m-2 0h-3m-2 0h-3m-2 0h-2.98m-2 0h-3m-2 0h-3m-2 0h-2.98m-2 0h-3m-2 0h-3m-2 0h-3m-1.98 0h-3m-2 0h-3m-2 0h-3m-2 0h-2.98m-2 0h-3m-2 0h-3m-2 0h-2.98m-2 0h-3m-2 0h-3m-2 0h-3m-1.98 0h-3m-2 0h-3m-2 0h-3m-2 0h-2.98m-2 0h-3m-2 0h-3m-2 0h-2.98m-2 0h-3m-2 0h-3m-2 0h-2.98m-2 0h-1.5l-.94-.07-.46-.1m-1.72-.73l-.4-.25-.72-.6-.6-.72-.26-.4m-.72-1.73l-.1-.46-.08-.94v-1.5m0-2v-3m0-1.98v-3m0-2v-2.98m0-2v-3m0-2v-2.98m0-2v-3m0-2v-2.98m0-2v-3m0-2v-2.98m0-2v-3m0-2v-2.98m0-2v-3m0-2v-2.98m0-2v-3m0-1.98v-3m0-2v-3m0-1.98v-3m0-2v-3m0-1.98v-3m0-2v-3m0-1.98v-3m0-2v-2.98m0-2v-3m0-2v-2.98m0-2v-3m0-2v-2.98m0-2v-3m0-2v-2.98m0-2v-3m0-2v-2.98m0-2v-3m0-2v-2.98m0-2v-3m0-2v-2.98m0-2v-3m0-1.98v-3m0-2v-3m0-1.98v-3m0-2v-3m0-1.98v-3m0-2v-2.98m0-2v-3m0-2v-2.98m0-2v-3m0-2V-232m0-2v-3m0-2V-242m0-2v-3m0-2v-2.98m0-2v-3m0-2v-2.98m0-2v-3m0-2v-2.98m0-2v-3m0-1.98v-3m0-2v-3m0-1.98v-3m0-2v-3m0-1.98v-3m0-2v-3m0-1.98v-3m0-2v-2.98m0-2v-3m0-2v-2.98m0-2v-3m0-2v-2.98m0-2v-3m0-2v-2.98m0-2v-3m0-2v-2.98m0-2v-3m0-2v-2.98m0-2v-3m0-1.98v-3m0-2v-3m0-1.98v-3m0-2v-3m0-1.98v-3m0-2v-3m0-1.98v-3m0-2v-2.98m0-2v-3m0-2v-2.98m0-2v-3m0-2v-2.98m0-2v-3m0-2v-2.98m0-2v-3m0-2v-2.98m0-2v-3m0-2v-2.98m0-2v-3m0-1.98v-3m0-2v-3m0-1.98v-3m0-2v-3m0-1.98v-3m0-2v-2.98m0-2v-3m0-2v-2.98m0-2v-3m0-2v-2.98m0-2v-3m0-2v-2.98m0-2v-3m0-2v-2.98m0-2v-3m0-2v-2.98m0-2v-3m0-2v-2.98m0-2v-3m0-1.98v-3m0-2v-3m0-1.98v-3m0-2v-3m0-1.98v-3m0-2v-3m0-1.98v-3m0-2v-2.98m0-2v-3m0-2v-2.98m0-2v-3m0-2v-2.98m0-2v-3m0-2v-2.98m0-2v-3m0-2v-2.98m0-2v-3m0-2v-2.98m0-2v-3m0-1.98v-3m0-2v-3m0-1.98v-3m0-2v-3m0-1.98v-3m0-2v-3m0-1.98v-3m0-2v-2.98m0-2v-3m0-2V-706m0-2v-3m0-2V-716m0-2v-3m0-2v-2.98m0-2v-3m0-2v-2.98m0-2v-3m0-2v-2.98m0-2v-3m0-1.98v-3m0-2v-3m0-1.98v-3m0-2v-3m0-1.98v-3m0-2v-3m0-1.98v-3m0-2v-2.98m0-2v-3m0-2v-2.98m0-2v-3m0-2v-2.98m0-2v-3m0-2v-2.98m0-2v-3m0-2v-2.98m0-2v-3m0-2v-2.98m0-2v-3m0-1.98v-3m0-2v-3m0-1.98v-3m0-2v-3m0-1.98v-3m0-2v-3m0-1.98v-3m0-2v-2.98m0-2v-3m0-2v-2.98m0-2v-3m0-2v-2.98m0-2v-3m0-2v-2.98m0-2v-3m0-2v-2.98m0-2v-3m0-2v-2.98m0-2v-3m0-1.98v-3m0-2v-3m0-1.98v-1.5l.07-.94.1-.46" stroke="#147eba" fill="none"/><path d="M-1760-960h56v56h-56v-56z" stroke="#fff" stroke-opacity="0" fill="#147eba"/><path d="M-1716.16-930.64l-5.96-7.36 5.96-7.4h-26.17v-2.08c.98-.32 1.62-1.16 1.62-2.2-.1-1.15-1.03-2.02-2.17-2.14-1.3-.08-2.44.87-2.53 2.15 0 1.03.63 1.87 1.58 2.2v33.88h-4.02v1.6h9.44v-1.6h-3.93v-17.04zm-26.96-19.75c.4-.03.76.33.76.73 0 .44-.32.75-.73.75-.4.04-.75-.3-.75-.7v-.05c0-.4.32-.72.73-.72zm23.6 6.62l-4.65 5.78 4.65 5.73h-22.8v-11.5z" stroke="#fff" stroke-opacity="0" fill="#fff"/><use xlink:href="#a" transform="matrix(1,0,0,1,-1689,-940) translate(0 14.4)"/><use xlink:href="#b" transform="matrix(1,0,0,1,-1689,-940) translate(92.9 14.4)"/><path d="M-2400-954a6 6 0 0 1 6-6h308a6 6 0 0 1 6 6V-6a6 6 0 0 1-6 6h-308a6 6 0 0 1-6-6z" stroke="#dd3522" fill="#fff" fill-opacity="0"/><use xlink:href="#c" transform="matrix(1,0,0,1,-2400,-940) translate(65.125 14.4)"/><use xlink:href="#d" transform="matrix(1,0,0,1,-2400,-940) translate(164.325 14.4)"/><use xlink:href="#e" transform="matrix(1,0,0,1,-2400,-940) translate(107.6 36)"/><use xlink:href="#f" transform="matrix(1,0,0,1,-2400,-940) translate(150.5 36)"/><path d="M-1720-574a6 6 0 0 1 6-6h188a6 6 0 0 1 6 6v188a6 6 0 0 1-6 6h-188a6 6 0 0 1-6-6z" stroke="#147eba" fill="#fff" fill-opacity="0"/><use xlink:href="#g" transform="matrix(1,0,0,1,-1720,-560) translate(13.774999999999991 14.4)"/><use xlink:href="#h" transform="matrix(1,0,0,1,-1720,-560) translate(99.675 14.4)"/><path d="M-1320-394a6 6 0 0 1 6-6h628a6 6 0 0 1 6 6v348a6 6 0 0 1-6 6h-628a6 6 0 0 1-6-6z" fill="#147eba" fill-opacity=".1"/><path d="M-1620-520c33.12 0 60 26.88 60 60 0 33.12-26.88 60-60 60-33.12 0-60-26.88-60-60 0-33.12 26.88-60 60-60zm0 114.6c30.12 0 54.6-24.48 54.6-54.6s-24.48-54.6-54.6-54.6-54.6 24.48-54.6 54.6 24.48 54.6 54.6 54.6zm38.16-37.2c1.56 0 2.76 1.2 2.76 2.64v10.92c0 1.56-1.2 2.76-2.76 2.76h-10.92c-1.44 0-2.64-1.2-2.64-2.76v-2.76h-30c-1.56 0-2.76-1.2-2.76-2.64v-10.92h5.4v8.16h27.36v-2.76c0-1.44 1.2-2.64 2.64-2.64zm0-51.84c1.56 0 2.76 1.2 2.76 2.64v10.92c0 1.56-1.2 2.76-2.76 2.76h-10.92c-1.44 0-2.64-1.2-2.64-2.76v-2.64h-27.36v8.16h-5.4v-10.92c0-1.56 1.2-2.76 2.76-2.76h30v-2.76c0-1.44 1.2-2.64 2.64-2.64zm-54.6 48.96l3.84 3.84-7.08 7.08c-.48.48-1.2.72-1.92.72s-1.44-.24-1.92-.72l-6.96-7.08 3.84-3.84 2.04 2.16v-33.84l-2.28 2.4-3.84-3.84 6.96-7.08c.6-.48 1.2-.72 1.92-.72s1.44.24 1.92.72l7.08 7.08-3.84 3.84-2.4-2.4v34.32zm54.6-22.68c1.56 0 2.76 1.2 2.76 2.76v10.8c0 1.56-1.2 2.76-2.76 2.76h-10.92c-1.44 0-2.64-1.2-2.64-2.76v-2.64h-10.92v-5.52h10.92v-2.64c0-1.56 1.2-2.76 2.64-2.76zm-65.76 10.08l-7.08 7.08-3.84-3.96 2.4-2.28h-14.76v-5.52h14.76l-2.4-2.28 3.84-3.96 7.08 7.08c.48.48.72 1.2.72 1.92s-.24 1.44-.72 1.92zm21.96 3.12l-3.84 3.96-7.08-7.08c-.48-.48-.72-1.2-.72-1.92s.24-1.44.72-1.92l7.08-7.08 3.84 3.96-2.4 2.28h14.52v5.52h-14.52zm35.64-28.56h5.4v-5.52h-5.4zm0 26.28h5.4v-5.52h-5.4zm0 25.44h5.4v-5.4h-5.4zM-1201.47-800l50.97 29.16-2.83 4.8-45.43-26.04v49.32h46.38l-12.98-12.84 3.9-3.96 19.46 19.44-19.47 19.32-3.9-3.84 12.63-12.6h-46.02v49.32l45.43-26.04 2.83 4.8-50.97 29.16-50.86-29.16 2.7-4.8 45.44 26.04v-49.32h-46.6l14.16 14.04-3.9 3.84-19.46-19.32 19.47-19.32 3.9 3.84-11.45 11.4h43.9v-49.32l-45.44 26.04-2.7-4.8z" stroke="#000" stroke-opacity="0" fill="#147eba"/><path d="M-1252.33-770.72l50.86-29.28 50.86 29.16-2.73 4.8-8.02 6.6 19.35 19.32-19.47 19.32 8.14 6.96 2.83 4.68-50.97 29.16-50.98-29.16 2.83-4.8 9.1-5.4-19.48-19.2 19.47-19.44-9.1-8.16z" stroke="#000" stroke-opacity="0" fill="#005710" fill-opacity="0"/><use xlink:href="#i" transform="matrix(1,0,0,1,-1290,-671) translate(57.525 14.4)"/><path d="M-948.87-770.96c.85.48 1.37 1.32 1.37 2.28v57.36c0 .96-.52 1.8-1.37 2.28l-49.76 28.68c-.42.24-.95.36-1.37.36-.42 0-.95-.12-1.37-.36l-49.76-28.68c-.84-.48-1.37-1.32-1.37-2.28v-57.36c0-.96.53-1.8 1.37-2.28l49.77-28.68c.84-.48 1.88-.48 2.73 0zm-51.13-23.16l-45.36 26.04 45.36 26.16 45.36-26.16zm-47.04 31.44v49.8l44.3 25.44v-49.8zm49.77 75.24l44.3-25.44v-49.8l-44.3 25.44z" stroke="#000" stroke-opacity="0" fill="#147eba"/><use xlink:href="#j" transform="matrix(1,0,0,1,-1082.5,-671) translate(64.5 14.4)"/><path d="M-740.76-800c1.56 0 2.76 1.2 2.76 2.76v114.48c0 1.56-1.2 2.76-2.76 2.76h-114.48c-1.56 0-2.76-1.2-2.76-2.76v-114.48c0-1.56 1.2-2.76 2.76-2.76zm-111.72 114.48h108.96v-108.96h-108.96z" stroke="#000" stroke-opacity="0" fill="#ee4e8b"/><use xlink:href="#k" transform="matrix(1,0,0,1,-888,-671) translate(18.474999999999994 14.4)"/><use xlink:href="#l" transform="matrix(1,0,0,1,-888,-671) translate(97.675 14.4)"/><path d="M-1201.47-280l50.97 29.16-2.83 4.8-45.43-26.04v49.32h46.38l-12.98-12.84 3.9-3.96 19.46 19.44-19.47 19.32-3.9-3.84 12.63-12.6h-46.02v49.32l45.43-26.04 2.83 4.8-50.97 29.16-50.86-29.16 2.7-4.8 45.44 26.04v-49.32h-46.6l14.16 14.04-3.9 3.84-19.46-19.32 19.47-19.32 3.9 3.84-11.45 11.4h43.9v-49.32l-45.44 26.04-2.7-4.8z" stroke="#000" stroke-opacity="0" fill="#147eba"/><path d="M-1252.33-250.72l50.86-29.28 50.86 29.16-2.73 4.8-8.02 6.6 19.35 19.32-19.47 19.32 8.14 6.96 2.83 4.68-50.97 29.16-50.98-29.16 2.83-4.8 9.1-5.4-19.48-19.2 19.47-19.44-9.1-8.16z" stroke="#000" stroke-opacity="0" fill="#005710" fill-opacity="0"/><use xlink:href="#i" transform="matrix(1,0,0,1,-1290,-151) translate(57.525 14.4)"/><path d="M-948.87-250.96c.85.48 1.37 1.32 1.37 2.28v57.36c0 .96-.52 1.8-1.37 2.28l-49.76 28.68c-.42.24-.95.36-1.37.36-.42 0-.95-.12-1.37-.36l-49.76-28.68c-.84-.48-1.37-1.32-1.37-2.28v-57.36c0-.96.53-1.8 1.37-2.28l49.77-28.68c.84-.48 1.88-.48 2.73 0zm-51.13-23.16l-45.36 26.04 45.36 26.16 45.36-26.16zm-47.04 31.44v49.8l44.3 25.44v-49.8zm49.77 75.24l44.3-25.44v-49.8l-44.3 25.44z" stroke="#000" stroke-opacity="0" fill="#147eba"/><use xlink:href="#j" transform="matrix(1,0,0,1,-1082.5,-151) translate(64.5 14.4)"/><path d="M-740.76-280c1.56 0 2.76 1.2 2.76 2.76v114.48c0 1.56-1.2 2.76-2.76 2.76h-114.48c-1.56 0-2.76-1.2-2.76-2.76v-114.48c0-1.56 1.2-2.76 2.76-2.76zm-111.72 114.48h108.96v-108.96h-108.96z" stroke="#000" stroke-opacity="0" fill="#ee4e8b"/><use xlink:href="#k" transform="matrix(1,0,0,1,-888,-151) translate(18.474999999999994 14.4)"/><use xlink:href="#l" transform="matrix(1,0,0,1,-888,-151) translate(97.675 14.4)"/><path d="M-282.76-540c1.56 0 2.76 1.2 2.76 2.76v114.48c0 1.56-1.2 2.76-2.76 2.76h-114.48c-1.56 0-2.76-1.2-2.76-2.76v-114.48c0-1.56 1.2-2.76 2.76-2.76zm-111.72 114.48h108.96v-108.96h-108.96z" stroke="#000" stroke-opacity="0" fill="#ee4e8b"/><use xlink:href="#k" transform="matrix(1,0,0,1,-430,-411) translate(13.625 14.4)"/><use xlink:href="#m" transform="matrix(1,0,0,1,-430,-411) translate(92.825 14.4)"/><use xlink:href="#n" transform="matrix(1,0,0,1,-430,-411) translate(54.05 36)"/><path d="M-282.76-300c1.56 0 2.76 1.2 2.76 2.76v114.48c0 1.56-1.2 2.76-2.76 2.76h-114.48c-1.56 0-2.76-1.2-2.76-2.76v-114.48c0-1.56 1.2-2.76 2.76-2.76zm-111.72 114.48h108.96v-108.96h-108.96z" stroke="#000" stroke-opacity="0" fill="#ee4e8b"/><use xlink:href="#k" transform="matrix(1,0,0,1,-430,-171) translate(13.625 14.4)"/><use xlink:href="#o" transform="matrix(1,0,0,1,-430,-171) translate(92.825 14.4)"/><path d="M-282.76-780c1.56 0 2.76 1.2 2.76 2.76v114.48c0 1.56-1.2 2.76-2.76 2.76h-114.48c-1.56 0-2.76-1.2-2.76-2.76v-114.48c0-1.56 1.2-2.76 2.76-2.76zm-111.72 114.48h108.96v-108.96h-108.96z" stroke="#000" stroke-opacity="0" fill="#ee4e8b"/><use xlink:href="#k" transform="matrix(1,0,0,1,-430,-651) translate(13.625 14.4)"/><use xlink:href="#o" transform="matrix(1,0,0,1,-430,-651) translate(92.825 14.4)"/><path d="M-2205.8-486.95c.84.57 1.32 1.48 1.32 2.4v39.78c0 1.02-.48 1.93-1.32 2.4l-32.76 19.03c-.48.23-.96.34-1.44.34s-.96-.1-1.44-.46c-.24-.1-.36-.22-.48-.45l-32.16-19.4c-.84-.56-1.32-1.36-1.32-2.4v-38.86c-.12-.8.12-1.6.6-2.28.24-.23.48-.46.72-.57l31.44-19.62c.84-.57 1.92-.57 2.76-.1zm20.64-50.05c2.88 0 5.16 2.28 5.16 5.02v77.4c0 2.74-2.28 5.02-5.16 5.02h-13.92v-5.47h13.68v-60.08h-109.08l-.12 60.07h13.8v5.47h-14.16c-2.76 0-5.04-2.28-5.04-5.02l.12-77.4c0-2.74 2.28-5.02 5.04-5.02zm-109.32 16.42h109.08v-10.95h-109.08zm57.24 90.06l27.24-15.85v-33.97l-27.24 15.84zm-32.64-49.94v33.3l27.24 16.52v-33.63zm28.68-21.1l-26.04 16.32 27.24 16.18 27-15.84zm44.88 41.05v-46.4h5.4v46.4zm-90-65.56c0 1.5-1.2 2.74-2.64 2.74-1.56 0-2.76-1.25-2.76-2.74 0-1.48 1.2-2.73 2.76-2.73 1.44 0 2.64 1.26 2.64 2.74zm8.28 0c0 1.5-1.32 2.74-2.76 2.74-1.56 0-2.76-1.25-2.76-2.74 0-1.48 1.2-2.73 2.76-2.73 1.44 0 2.76 1.26 2.76 2.74zm8.16 0c0 1.5-1.32 2.74-2.76 2.74-1.56 0-2.76-1.25-2.76-2.74 0-1.48 1.2-2.73 2.76-2.73 1.44 0 2.76 1.26 2.76 2.74z" stroke="#000" stroke-opacity="0" fill="#e35848"/><path d="M-2296.82-533.26h113.88v81.17h-113.88v-81.16z" stroke="#000" stroke-opacity="0" fill-opacity="0"/><path d="M-2205.8-209.95c.84.57 1.32 1.48 1.32 2.4v39.78c0 1.02-.48 1.93-1.32 2.4l-32.76 19.03c-.48.23-.96.34-1.44.34s-.96-.1-1.44-.46c-.24-.1-.36-.22-.48-.45l-32.16-19.4c-.84-.56-1.32-1.36-1.32-2.4v-38.86c-.12-.8.12-1.6.6-2.28.24-.23.48-.46.72-.57l31.44-19.62c.84-.57 1.92-.57 2.76-.1zm20.64-50.05c2.88 0 5.16 2.28 5.16 5.02v77.4c0 2.74-2.28 5.02-5.16 5.02h-13.92v-5.47h13.68v-60.08h-109.08l-.12 60.07h13.8v5.47h-14.16c-2.76 0-5.04-2.28-5.04-5.02l.12-77.4c0-2.74 2.28-5.02 5.04-5.02zm-109.32 16.42h109.08v-10.95h-109.08zm57.24 90.06l27.24-15.85v-33.97l-27.24 15.84zm-32.64-49.94v33.3l27.24 16.52v-33.63zm28.68-21.1l-26.04 16.32 27.24 16.18 27-15.84zm44.88 41.05v-46.4h5.4v46.4zm-90-65.56c0 1.5-1.2 2.74-2.64 2.74-1.56 0-2.76-1.25-2.76-2.74 0-1.48 1.2-2.73 2.76-2.73 1.44 0 2.64 1.26 2.64 2.74zm8.28 0c0 1.5-1.32 2.74-2.76 2.74-1.56 0-2.76-1.25-2.76-2.74 0-1.48 1.2-2.73 2.76-2.73 1.44 0 2.76 1.26 2.76 2.74zm8.16 0c0 1.5-1.32 2.74-2.76 2.74-1.56 0-2.76-1.25-2.76-2.74 0-1.48 1.2-2.73 2.76-2.73 1.44 0 2.76 1.26 2.76 2.74z" stroke="#000" stroke-opacity="0" fill="#e35848"/><path d="M-2296.82-256.26h113.88v81.17h-113.88v-81.16z" stroke="#000" stroke-opacity="0" fill-opacity="0"/><path d="M-2205.8-763.95c.84.57 1.32 1.48 1.32 2.4v39.78c0 1.02-.48 1.93-1.32 2.4l-32.76 19.03c-.48.23-.96.34-1.44.34s-.96-.1-1.44-.46c-.24-.1-.36-.22-.48-.45l-32.16-19.4c-.84-.56-1.32-1.36-1.32-2.4v-38.86c-.12-.8.12-1.6.6-2.28.24-.23.48-.46.72-.57l31.44-19.62c.84-.57 1.92-.57 2.76-.1zm20.64-50.05c2.88 0 5.16 2.28 5.16 5.02v77.4c0 2.74-2.28 5.02-5.16 5.02h-13.92v-5.47h13.68v-60.08h-109.08l-.12 60.07h13.8v5.47h-14.16c-2.76 0-5.04-2.28-5.04-5.02l.12-77.4c0-2.74 2.28-5.02 5.04-5.02zm-109.32 16.42h109.08v-10.95h-109.08zm57.24 90.06l27.24-15.85v-33.97l-27.24 15.84zm-32.64-49.94v33.3l27.24 16.52v-33.63zm28.68-21.1l-26.04 16.32 27.24 16.18 27-15.84zm44.88 41.05v-46.4h5.4v46.4zm-90-65.56c0 1.5-1.2 2.74-2.64 2.74-1.56 0-2.76-1.25-2.76-2.74 0-1.48 1.2-2.73 2.76-2.73 1.44 0 2.64 1.26 2.64 2.74zm8.28 0c0 1.5-1.32 2.74-2.76 2.74-1.56 0-2.76-1.25-2.76-2.74 0-1.48 1.2-2.73 2.76-2.73 1.44 0 2.76 1.26 2.76 2.74zm8.16 0c0 1.5-1.32 2.74-2.76 2.74-1.56 0-2.76-1.25-2.76-2.74 0-1.48 1.2-2.73 2.76-2.73 1.44 0 2.76 1.26 2.76 2.74z" stroke="#000" stroke-opacity="0" fill="#e35848"/><path d="M-2296.82-810.26h113.88v81.17h-113.88v-81.16z" stroke="#000" stroke-opacity="0" fill-opacity="0"/><path d="M-1919.5-486.02l.07.88.2.84.33.8.45.73.56.66.67.55.73.45.8.33.84.2.88.07h4.9v1h-4.94l-1-.08-1-.24-.93-.4-.87-.52-.78-.66-.66-.78-.53-.87-.38-.94-.24-.98-.08-1v-4.93h1zm25.18 6.52h-9.84v-1h9.84zm14.76 0h-9.84v-1h9.84zm14.76 0h-9.84v-1h9.84zm14.76 0h-9.84v-1h9.84zm14.76 0h-9.84v-1h9.84zm14.76 0h-9.84v-1h9.84zm14.76 0h-9.84v-1h9.84zm14.76 0h-9.84v-1h9.84zm14.76 0h-9.84v-1h9.84zm14.76 0h-9.84v-1h9.84zm14.76 0h-9.84v-1h9.84zm9.84 0h-4.92v-1h4.92zm-182.62-16.3h-1v-9.83h1zm0-14.74h-1v-9.8h1zm0-14.72h-1v-9.8h1zm0-14.72h-1v-9.82h1zm0-14.72h-1v-9.82h1zm0-14.73h-1v-9.8h1zm0-14.72h-1v-9.8h1zm0-14.72h-1v-9.8h1zm0-14.72h-1v-9.8h1zm0-14.72h-1v-9.8h1zm0-14.72h-1v-9.8h1zm0-14.72h-1v-9.8h1zm0-14.72h-1v-9.82h1zm0-14.72h-1v-9.82h1zm0-14.73h-1v-9.8h1zm0-14.72h-1v-9.8h1zm0-14.72h-1v-9.8h1zm-5.48-26.05l1 .24.93.4.87.52.78.66.66.78.53.87.38.94.24.98.08 1v4.93h-1v-4.88l-.07-.88-.2-.84-.33-.8-.45-.73-.56-.66-.67-.55-.73-.45-.8-.33-.84-.2-.88-.07h-4.95v-1h5zm-249.55.92h-4.97v-1h4.97zm14.9 0h-9.93v-1h9.94zm14.92 0h-9.95v-1h9.94zm14.9 0h-9.93v-1h9.94zm14.92 0h-9.94v-1h9.94zm14.9 0h-9.93v-1h9.93zm14.92 0h-9.94v-1h9.94zm14.9 0h-9.93v-1h9.95zm14.92 0h-9.94v-1h9.94zm14.92 0h-9.94v-1h9.94zm14.9 0h-9.93v-1h9.94zm8.13 0h-3.14v-1h3.15zm66.45 0h-9.94v-1h9.95zm14.9 0h-9.93v-1h9.94zm-29.82 0h-5.25v-1h5.25z" stroke="#dd3522" stroke-width=".05" fill="#dd3522"/><path d="M-2179.5-756.5h-.5v-1h.5z" fill="#dd3522"/><path d="M-2179.46-756.48h-.57v-1.04h.57zm-.5-1v.96h.45v-.96z" stroke="#dd3522" stroke-width=".05" fill="#dd3522"/><path d="M-1722.12-480l-14.26 4.63v-9.26z" fill="#dd3522"/><path d="M-1720.5-480l-16.38 5.32v-10.64zm-15.38 3.95l12.14-3.95-12.14-3.95z" stroke="#dd3522" stroke-width=".05" fill="#dd3522"/><use xlink:href="#p" transform="matrix(1,0,0,1,-2017.2890477620006,-767.6666666666666) translate(0 14.222222222222223)"/><path d="M-2174.58-479.5h-4.92v-1h4.92zm14.75 0h-9.83v-1h9.83zm14.76 0h-9.84v-1h9.83zm14.75 0h-9.84v-1h9.84zm14.75 0h-9.83v-1h9.83zm14.76 0h-9.85v-1h9.84zm14.74 0h-9.84v-1h9.84zm14.76 0h-9.84v-1h9.84zm14.75 0h-9.84v-1h9.85zm14.75 0h-9.83v-1h9.83zm14.76 0h-9.84v-1h9.84zm11.27 0h-6.36v-1h6.36zm62.5 0h-9.84v-1h9.83zm14.75 0h-9.84v-1h9.84zm14.75 0h-9.83v-1h9.83zm14.76 0h-9.85v-1h9.84zm14.74 0h-9.83v-1h9.84zm14.75 0h-9.84v-1h9.83zm14.75 0h-9.84v-1h9.85zm14.75 0h-9.83v-1h9.83zm14.76 0h-9.84v-1h9.84zm14.75 0h-9.83v-1h9.84zm14.77 0h-9.84v-1h9.84zm14.75 0h-9.84v-1h9.84zm14.75 0h-9.83v-1h9.83zm14.76 0h-9.84v-1h9.83zm14.75 0h-9.84v-1h9.84zm9.84 0h-4.92v-1h4.92z" stroke="#dd3522" stroke-width=".05" fill="#dd3522"/><path d="M-2179.5-479.5h-.5v-1h.5z" fill="#dd3522"/><path d="M-2179.46-479.48h-.57v-1.04h.57zm-.5-1v.96h.45v-.96z" stroke="#dd3522" stroke-width=".05" fill="#dd3522"/><path d="M-1722.12-480l-14.26 4.63v-9.26z" fill="#dd3522"/><path d="M-1720.5-480l-16.38 5.32v-10.64zm-15.38 3.95l12.14-3.95-12.14-3.95z" stroke="#dd3522" stroke-width=".05" fill="#dd3522"/><use xlink:href="#q" transform="matrix(1,0,0,1,-2015.7656942785413,-490.6666666666667) translate(0 14.222222222222223)"/><path d="M-2174.53-202.5h-4.97v-1h4.97zm14.9 0h-9.93v-1h9.94zm14.92 0h-9.95v-1h9.94zm14.9 0h-9.93v-1h9.94zm14.92 0h-9.94v-1h9.94zm14.9 0h-9.93v-1h9.93zm14.92 0h-9.94v-1h9.94zm14.9 0h-9.93v-1h9.95zm14.92 0h-9.94v-1h9.94zm14.92 0h-9.94v-1h9.94zm14.9 0h-9.93v-1h9.94zm5.64 0h-.66v-1h.66zm68.93 0h-9.94v-1h9.95zm14.9 0h-9.93v-1h9.94zm16.45-6.48l-.08 1-.24 1-.4.93-.52.87-.66.78-.78.66-.87.53-.94.38-.98.24-1 .08h-5v-1h4.96l.88-.07.84-.2.8-.33.73-.45.66-.56.55-.67.45-.73.33-.8.2-.84.07-.88v-4.9h1zm-46.27 6.48h-2.75v-1h2.75zm46.27-16.3h-1v-9.83h1zm0-14.74h-1v-9.8h1zm0-14.72h-1v-9.8h1zm0-14.72h-1v-9.82h1zm0-14.72h-1v-9.82h1zm0-14.73h-1v-9.8h1zm0-14.72h-1v-9.8h1zm0-14.72h-1v-9.8h1zm0-14.72h-1v-9.8h1zm0-14.7h-1v-9.83h1zm0-14.74h-1v-9.8h1zm0-14.72h-1v-9.8h1zm0-14.72h-1v-9.82h1zm0-14.72h-1v-9.82h1zm0-14.73h-1v-9.8h1zm0-14.72h-1v-9.8h1zm0-14.72h-1v-9.8h1zm10.42-25.13h-4.9l-.88.07-.84.2-.8.33-.73.45-.66.56-.55.67-.45.73-.33.8-.2.84-.07.88v4.9h-1v-4.94l.08-1 .24-1 .4-.93.52-.87.66-.78.78-.66.87-.53.94-.38.98-.24 1-.08h4.94zm14.76 0h-9.84v-1h9.84zm14.76 0h-9.84v-1h9.84zm14.76 0h-9.84v-1h9.84zm14.76 0h-9.84v-1h9.84zm14.76 0h-9.84v-1h9.84zm14.76 0h-9.84v-1h9.84zm14.76 0h-9.84v-1h9.84zm14.76 0h-9.84v-1h9.84zm14.76 0h-9.84v-1h9.84zm14.76 0h-9.84v-1h9.84zm14.76 0h-9.84v-1h9.84zm9.84 0h-4.92v-1h4.92z" stroke="#dd3522" stroke-width=".05" fill="#dd3522"/><path d="M-2179.5-202.5h-.5v-1h.5z" fill="#dd3522"/><path d="M-2179.46-202.47h-.57v-1.06h.57zm-.5-1v.94h.45v-.94z" stroke="#dd3522" stroke-width=".05" fill="#dd3522"/><path d="M-1722.12-480l-14.26 4.63v-9.26z" fill="#dd3522"/><path d="M-1720.5-480l-16.38 5.32v-10.64zm-15.38 3.95l12.14-3.95-12.14-3.95z" stroke="#dd3522" stroke-width=".05" fill="#dd3522"/><use xlink:href="#q" transform="matrix(1,0,0,1,-2019.7828749224943,-213.66666666666666) translate(0 14.222222222222223)"/><path d="M-1513.84-479.5h-5.16v-1h5.16zm125.25-6.48l-.06 1-.24 1-.4.93-.53.87-.66.78-.76.66-.87.53-.95.38-1 .24-1 .08h-5.17v-1h5.14l.88-.07.83-.2.8-.33.75-.45.65-.56.56-.67.45-.73.34-.8.2-.84.08-.88v-4.84h1zm-16.8 6.48h-1.5v-1h1.5zm16.82-16.23h-1v-9.72h1zm0-14.58h-1v-9.74h1zm0-14.6h-1v-9.73h1zm0-14.6h-1v-9.72h1zm0-14.58h-1v-9.72h1zm0-14.6h-1v-9.7h1zm0-14.58h-1v-9.72h1zm0-14.58h-1v-9.73h1zm0-14.6h-1v-9.72h1zm0-14.58h-1v-9.73h1zm0-14.6h-1v-9.7h1zm0-14.58h-1v-9.72h1zm0-14.58h-1v-9.73h1zm0-14.6h-1v-9.72h1zm0-14.58h-1v-9.73h1zm0-14.6h-1v-9.72h1zm10.64-24.94h-5.13l-.88.07-.83.2-.8.33-.74.45-.65.56-.56.67-.45.73-.33.8-.22.84-.07.88v4.84h-1v-4.88l.1-1 .23-1 .4-.93.52-.87.67-.78.77-.66.86-.53.95-.38 1-.24 1-.08h5.16zm15.43 0h-10.3v-1h10.3zm15.43 0h-10.3v-1h10.3zm15.43 0h-10.3v-1h10.3zm15.43 0h-10.3v-1h10.3zm15.42 0h-10.28v-1h10.28zm15.44 0h-10.3v-1h10.3zm10.3 0h-5.16v-1h5.15z" stroke="#147eba" stroke-width=".05" fill="#147eba"/><path d="M-1519-479.5h-.5v-1h.5z" fill="#147eba"/><path d="M-1518.96-479.48h-.57v-1.04h.57zm-.5-1v.96h.45v-.96z" stroke="#147eba" stroke-width=".05" fill="#147eba"/><path d="M-1260.3-740l-14.25 4.63v-9.26z" fill="#147eba"/><path d="M-1258.67-740l-16.38 5.32v-10.64zm-15.38 3.95l12.14-3.95-12.15-3.95zM-1388.6-226.02l.08.88.2.84.34.8.45.73.56.66.65.55.74.45.8.33.84.2.88.07h5.12v1h-5.16l-1-.08-1-.24-.94-.4-.87-.52-.78-.66-.66-.78-.54-.87-.4-.94-.23-.98-.1-1v-4.88h1zm26.1 6.52h-10.3v-1h10.3zm15.43 0h-10.3v-1h10.3zm15.43 0h-10.3v-1h10.3zm15.43 0h-10.3v-1h10.3zm15.42 0h-10.28v-1h10.28zm15.44 0h-10.3v-1h10.3zm10.3 0h-5.16v-1h5.15zm-113.55-16.22h-1v-9.73h1zm0-14.6h-1v-9.72h1zm0-14.58h-1v-9.73h1zm0-14.6h-1v-9.72h1zm0-14.58h-1v-9.72h1zm0-14.6h-1v-9.7h1zm0-14.57h-1V-333h1zm0-14.6h-1v-9.72h1zm0-14.58h-1v-9.73h1zm0-14.6h-1v-9.72h1zm0-14.58h-1v-9.73h1zm0-14.6h-1v-9.72h1zm0-14.58h-1v-9.73h1zm0-14.6h-1v-9.72h1zm0-14.58h-1v-9.73h1zm0-14.6h-1v-9.7h1zm-5.47-25.86l1 .24.94.4.87.52.77.66.67.78.54.87.4.94.24.98.08 1v4.88h-1v-4.84l-.07-.88-.2-.84-.34-.8-.44-.73-.56-.66-.65-.55-.74-.45-.8-.33-.82-.2-.88-.07h-5.15v-1h5.18zm-119.77.92h-5.16v-1h5.16zm108.43 0h-1.5v-1h1.5z" stroke="#147eba" stroke-width=".05" fill="#147eba"/><path d="M-1519-479.5h-.5v-1h.5z" fill="#147eba"/><path d="M-1518.96-479.48h-.57v-1.04h.57zm-.5-1v.96h.45v-.96z" stroke="#147eba" stroke-width=".05" fill="#147eba"/><path d="M-1260.3-220l-14.25 4.63v-9.26z" fill="#147eba"/><path d="M-1258.67-220l-16.38 5.32v-10.64zm-15.38 3.95l12.14-3.95-12.15-3.95z" stroke="#147eba" stroke-width=".05" fill="#147eba"/><use xlink:href="#r" transform="matrix(1,0,0,1,-1512.3730102411178,-490.6666666666667) translate(0 14.222222222222223)"/><use xlink:href="#s" transform="matrix(1,0,0,1,-1512.3730102411178,-490.6666666666667) translate(56.19753086419754 14.222222222222223)"/><path d="M-1141.62-740h4.92m4.93 0h9.84m4.93 0h9.84m4.93 0h9.84m4.94 0h9.84m4.93 0h9.85m4.93 0h4.92" stroke="#3a414a" fill="none"/><path d="M-1141.6-739.5h-1.03l.63-.62-.38-.38h.77zM-1052.5-739.5h-.5v-1h.5z" stroke="#3a414a" stroke-width=".05" fill="#3a414a"/><path d="M-947-740h4.92m4.9 0h9.85m4.9 0h9.85m4.9 0h9.85m4.9 0h9.85m4.9 0h9.85m4.9 0h4.93" stroke="#3a414a" fill="none"/><path d="M-947-739.5h-.5v-1h.5zM-858-739.5h-.5v-1h.5z" stroke="#3a414a" stroke-width=".05" fill="#3a414a"/><path d="M-737.5-740h4.92m4.93 0h9.85m4.92 0h9.85m4.92 0h9.84m4.93 0h9.85m4.92 0h9.85m4.9 0h9.86m4.93 0h9.83m4.93 0h9.85m4.93 0h9.85m4.92 0h9.85m4.93 0h4.92l.94.07.9.22.88.35.8.5.72.6.6.72.5.8.37.88.23.9.07.95v4.86m0 4.87v9.72m0 4.86v9.74m0 4.86v9.73m0 4.86v9.72m0 4.86v9.72m0 4.87v9.72m0 4.86v9.72m0 4.86v9.73m0 4.86v9.73m0 4.86v9.73m0 4.86v9.73m0 4.87v9.72m0 4.86v9.73m0 4.87v9.73m0 4.86v9.73m0 4.85v9.72m0 4.87v4.86l.07.94.22.9.35.88.5.8.6.72.72.6.8.5.88.37.9.23.95.07h4.9m4.87 0h9.78m4.9 0h9.76m4.9 0h9.77m4.9 0h9.76m4.9 0h9.76m4.88 0h9.78m4.88 0h9.78m4.9 0h9.76m4.9 0h9.76m4.9 0h4.88" stroke="#cd2264" fill="none"/><path d="M-737.5-739.5h-.5v-1h.5z" stroke="#cd2264" stroke-width=".05" fill="#cd2264"/><path d="M-401.62-480l-14.26 4.63v-9.26z" stroke="#cd2264" fill="#cd2264"/><path d="M-1200-279.66v-5m0-5v-10m0-5v-9.98m0-5v-10m0-5v-10m0-5v-9.98m0-5v-10m0-5v-10m0-5v-9.98m0-5v-10m0-5v-10m0-5v-9.98m0-5v-10m0-5v-10m0-5v-9.98m0-5v-10m0-5v-10m0-5v-9.98m0-5v-10m0-5v-10m0-5v-9.98m0-5v-10m0-5v-10m0-5v-9.98m0-5v-5" stroke="#3a414a" fill="none"/><path d="M-1199.5-278.87l-1-.57v-.23h1z" stroke="#3a414a" stroke-width=".05" fill="#3a414a"/><path d="M-1200-639.5v-.5M-1141.62-220h4.92m4.93 0h9.84m4.93 0h9.84m4.93 0h9.84m4.94 0h9.84m4.93 0h9.85m4.93 0h4.92" stroke="#3a414a" fill="none"/><path d="M-1141.6-219.5h-1.03l.63-.62-.38-.38h.77zM-1052.5-219.5h-.5v-1h.5z" stroke="#3a414a" stroke-width=".05" fill="#3a414a"/><path d="M-947-220h4.92m4.9 0h9.85m4.9 0h9.85m4.9 0h9.85m4.9 0h9.85m4.9 0h9.85m4.9 0h4.93" stroke="#3a414a" fill="none"/><path d="M-947-219.5h-.5v-1h.5zM-858-219.5h-.5v-1h.5z" stroke="#3a414a" stroke-width=".05" fill="#3a414a"/><path d="M-737.5-220h4.92m4.93 0h9.85m4.92 0h9.85m4.92 0h9.84m4.93 0h9.85m4.92 0h9.85m4.9 0h9.86m4.93 0h9.83m4.93 0h9.85m4.93 0h9.85m4.92 0h9.85m4.93 0h4.92l.94-.07.9-.22.88-.35.8-.5.72-.6.6-.72.5-.8.37-.88.23-.9.07-.95v-4.86m0-4.86v-9.73m0-4.86v-9.74m0-4.86v-9.73m0-4.86v-9.72m0-4.86v-9.72m0-4.87v-9.72m0-4.86v-9.72m0-4.86v-9.73m0-4.86v-9.73m0-4.86v-9.73m0-4.86v-9.73m0-4.87v-9.72m0-4.86v-9.73m0-4.87v-9.73m0-4.86v-9.73m0-4.85v-9.72m0-4.87V-474l.07-.94.22-.9.35-.88.5-.8.6-.72.72-.6.8-.5.88-.37.9-.23.95-.07h4.9m4.87 0h9.78m4.9 0h9.76m4.9 0h9.77m4.9 0h9.76m4.9 0h9.76m4.88 0h9.78m4.88 0h9.78m4.9 0h9.76m4.9 0h9.76m4.9 0h4.88" stroke="#ee4e8b" fill="none"/><path d="M-737.5-219.5h-.5v-1h.5z" stroke="#ee4e8b" stroke-width=".05" fill="#ee4e8b"/><path d="M-401.62-480l-14.26 4.63v-9.26z" stroke="#ee4e8b" fill="#ee4e8b"/><defs><path fill="#147eba" d="M30-248c118-7 216 8 213 122C240-48 200 0 122 0H30v-248zM63-27c89 8 146-16 146-99s-60-101-146-95v194" id="t"/><path fill="#147eba" d="M141-36C126-15 110 5 73 4 37 3 15-17 15-53c-1-64 63-63 125-63 3-35-9-54-41-54-24 1-41 7-42 31l-33-3c5-37 33-52 76-52 45 0 72 20 72 64v82c-1 20 7 32 28 27v20c-31 9-61-2-59-35zM48-53c0 20 12 33 32 33 41-3 63-29 60-74-43 2-92-5-92 41" id="u"/><path fill="#147eba" d="M59-47c-2 24 18 29 38 22v24C64 9 27 4 27-40v-127H5v-23h24l9-43h21v43h35v23H59v120" id="v"/><path fill="#147eba" d="M96-169c-40 0-48 33-48 73s9 75 48 75c24 0 41-14 43-38l32 2c-6 37-31 61-74 61-59 0-76-41-82-99-10-93 101-131 147-64 4 7 5 14 7 22l-32 3c-4-21-16-35-41-35" id="w"/><path fill="#147eba" d="M100-194c63 0 86 42 84 106H49c0 40 14 67 53 68 26 1 43-12 49-29l28 8c-11 28-37 45-77 45C44 4 14-33 15-96c1-61 26-98 85-98zm52 81c6-60-76-77-97-28-3 7-6 17-6 28h103" id="x"/><path fill="#147eba" d="M117-194c89-4 53 116 60 194h-32v-121c0-31-8-49-39-48C34-167 62-67 57 0H25l-1-190h30c1 10-1 24 2 32 11-22 29-35 61-36" id="y"/><path fill="#147eba" d="M114-163C36-179 61-72 57 0H25l-1-190h30c1 12-1 29 2 39 6-27 23-49 58-41v29" id="z"/><g id="a"><use transform="matrix(0.05,0,0,0.05,0,0)" xlink:href="#t"/><use transform="matrix(0.05,0,0,0.05,12.950000000000001,0)" xlink:href="#u"/><use transform="matrix(0.05,0,0,0.05,22.950000000000003,0)" xlink:href="#v"/><use transform="matrix(0.05,0,0,0.05,27.950000000000003,0)" xlink:href="#u"/><use transform="matrix(0.05,0,0,0.05,37.95,0)" xlink:href="#w"/><use transform="matrix(0.05,0,0,0.05,46.95,0)" xlink:href="#x"/><use transform="matrix(0.05,0,0,0.05,56.95,0)" xlink:href="#y"/><use transform="matrix(0.05,0,0,0.05,66.95,0)" xlink:href="#v"/><use transform="matrix(0.05,0,0,0.05,71.95,0)" xlink:href="#x"/><use transform="matrix(0.05,0,0,0.05,81.95,0)" xlink:href="#z"/></g><path fill="#147eba" d="M27 0v-27h64v-190l-56 39v-29l58-41h29v221h61V0H27" id="A"/><use transform="matrix(0.05,0,0,0.05,0,0)" xlink:href="#A" id="b"/><path fill="#dd3522" d="M30 0v-248h187v28H63v79h144v27H63v87h162V0H30" id="B"/><path fill="#dd3522" d="M195 0l-74-108L45 0H8l94-129-87-119h37l69 98 67-98h37l-84 118L233 0h-38" id="C"/><path fill="#dd3522" d="M127-220V0H93v-220H8v-28h204v28h-85" id="D"/><path fill="#dd3522" d="M233-177c-1 41-23 64-60 70L243 0h-38l-65-103H63V0H30v-248c88 3 205-21 203 71zM63-129c60-2 137 13 137-47 0-61-80-42-137-45v92" id="E"/><path fill="#dd3522" d="M190 0L58-211 59 0H30v-248h39L202-35l-2-213h31V0h-41" id="F"/><path fill="#dd3522" d="M205 0l-28-72H64L36 0H1l101-248h38L239 0h-34zm-38-99l-47-123c-12 45-31 82-46 123h93" id="G"/><path fill="#dd3522" d="M30 0v-248h33v221h125V0H30" id="H"/><g id="c"><use transform="matrix(0.05,0,0,0.05,0,0)" xlink:href="#B"/><use transform="matrix(0.05,0,0,0.05,12,0)" xlink:href="#C"/><use transform="matrix(0.05,0,0,0.05,24,0)" xlink:href="#D"/><use transform="matrix(0.05,0,0,0.05,34.95,0)" xlink:href="#B"/><use transform="matrix(0.05,0,0,0.05,46.95,0)" xlink:href="#E"/><use transform="matrix(0.05,0,0,0.05,59.900000000000006,0)" xlink:href="#F"/><use transform="matrix(0.05,0,0,0.05,72.85000000000001,0)" xlink:href="#G"/><use transform="matrix(0.05,0,0,0.05,84.85000000000001,0)" xlink:href="#H"/></g><path fill="#dd3522" d="M185-189c-5-48-123-54-124 2 14 75 158 14 163 119 3 78-121 87-175 55-17-10-28-26-33-46l33-7c5 56 141 63 141-1 0-78-155-14-162-118-5-82 145-84 179-34 5 7 8 16 11 25" id="I"/><path fill="#dd3522" d="M137 0h-34L2-248h35l83 218 83-218h36" id="J"/><path fill="#dd3522" d="M33 0v-248h34V0H33" id="K"/><path fill="#dd3522" d="M212-179c-10-28-35-45-73-45-59 0-87 40-87 99 0 60 29 101 89 101 43 0 62-24 78-52l27 14C228-24 195 4 139 4 59 4 22-46 18-125c-6-104 99-153 187-111 19 9 31 26 39 46" id="L"/><g id="d"><use transform="matrix(0.05,0,0,0.05,0,0)" xlink:href="#I"/><use transform="matrix(0.05,0,0,0.05,12,0)" xlink:href="#B"/><use transform="matrix(0.05,0,0,0.05,24,0)" xlink:href="#E"/><use transform="matrix(0.05,0,0,0.05,36.6,0)" xlink:href="#J"/><use transform="matrix(0.05,0,0,0.05,48.6,0)" xlink:href="#K"/><use transform="matrix(0.05,0,0,0.05,53.6,0)" xlink:href="#L"/><use transform="matrix(0.05,0,0,0.05,66.55,0)" xlink:href="#B"/><use transform="matrix(0.05,0,0,0.05,78.55,0)" xlink:href="#I"/></g><path fill="#dd3522" d="M30-248c118-7 216 8 213 122C240-48 200 0 122 0H30v-248zM63-27c89 8 146-16 146-99s-60-101-146-95v194" id="M"/><g id="e"><use transform="matrix(0.05,0,0,0.05,0,0)" xlink:href="#B"/><use transform="matrix(0.05,0,0,0.05,12,0)" xlink:href="#F"/><use transform="matrix(0.05,0,0,0.05,24.950000000000003,0)" xlink:href="#M"/></g><path fill="#dd3522" d="M232-93c-1 65-40 97-104 97C67 4 28-28 28-90v-158h33c8 89-33 224 67 224 102 0 64-133 71-224h33v155" id="N"/><g id="f"><use transform="matrix(0.05,0,0,0.05,0,0)" xlink:href="#N"/><use transform="matrix(0.05,0,0,0.05,12.950000000000001,0)" xlink:href="#I"/><use transform="matrix(0.05,0,0,0.05,24.950000000000003,0)" xlink:href="#B"/><use transform="matrix(0.05,0,0,0.05,36.95,0)" xlink:href="#E"/><use transform="matrix(0.05,0,0,0.05,49.900000000000006,0)" xlink:href="#I"/></g><path fill="#147eba" d="M33 0v-248h34V0H33" id="O"/><path fill="#147eba" d="M190 0L58-211 59 0H30v-248h39L202-35l-2-213h31V0h-41" id="P"/><path fill="#147eba" d="M143 4C61 4 22-44 18-125c-5-107 100-154 193-111 17 8 29 25 37 43l-32 9c-13-25-37-40-76-40-61 0-88 39-88 99 0 61 29 100 91 101 35 0 62-11 79-27v-45h-74v-28h105v86C228-13 192 4 143 4" id="Q"/><path fill="#147eba" d="M233-177c-1 41-23 64-60 70L243 0h-38l-65-103H63V0H30v-248c88 3 205-21 203 71zM63-129c60-2 137 13 137-47 0-61-80-42-137-45v92" id="R"/><path fill="#147eba" d="M30 0v-248h187v28H63v79h144v27H63v87h162V0H30" id="S"/><path fill="#147eba" d="M185-189c-5-48-123-54-124 2 14 75 158 14 163 119 3 78-121 87-175 55-17-10-28-26-33-46l33-7c5 56 141 63 141-1 0-78-155-14-162-118-5-82 145-84 179-34 5 7 8 16 11 25" id="T"/><g id="g"><use transform="matrix(0.05,0,0,0.05,0,0)" xlink:href="#O"/><use transform="matrix(0.05,0,0,0.05,5,0)" xlink:href="#P"/><use transform="matrix(0.05,0,0,0.05,17.950000000000003,0)" xlink:href="#Q"/><use transform="matrix(0.05,0,0,0.05,31.950000000000003,0)" xlink:href="#R"/><use transform="matrix(0.05,0,0,0.05,44.900000000000006,0)" xlink:href="#S"/><use transform="matrix(0.05,0,0,0.05,56.900000000000006,0)" xlink:href="#T"/><use transform="matrix(0.05,0,0,0.05,68.9,0)" xlink:href="#T"/></g><path fill="#147eba" d="M205 0l-28-72H64L36 0H1l101-248h38L239 0h-34zm-38-99l-47-123c-12 45-31 82-46 123h93" id="U"/><path fill="#147eba" d="M127-220V0H93v-220H8v-28h204v28h-85" id="V"/><path fill="#147eba" d="M266 0h-40l-56-210L115 0H75L2-248h35L96-30l15-64 43-154h32l59 218 59-218h35" id="W"/><path fill="#147eba" d="M137-103V0h-34v-103L8-248h37l75 118 75-118h37" id="X"/><g id="h"><use transform="matrix(0.05,0,0,0.05,0,0)" xlink:href="#Q"/><use transform="matrix(0.05,0,0,0.05,14,0)" xlink:href="#U"/><use transform="matrix(0.05,0,0,0.05,24.65,0)" xlink:href="#V"/><use transform="matrix(0.05,0,0,0.05,35.6,0)" xlink:href="#S"/><use transform="matrix(0.05,0,0,0.05,47.6,0)" xlink:href="#W"/><use transform="matrix(0.05,0,0,0.05,63.900000000000006,0)" xlink:href="#U"/><use transform="matrix(0.05,0,0,0.05,74.55000000000001,0)" xlink:href="#X"/></g><path d="M30-248c87 1 191-15 191 75 0 78-77 80-158 76V0H30v-248zm33 125c57 0 124 11 124-50 0-59-68-47-124-48v98" id="Y"/><path d="M233-177c-1 41-23 64-60 70L243 0h-38l-65-103H63V0H30v-248c88 3 205-21 203 71zM63-129c60-2 137 13 137-47 0-61-80-42-137-45v92" id="Z"/><path d="M140-251c81 0 123 46 123 126C263-46 219 4 140 4 59 4 17-45 17-125s42-126 123-126zm0 227c63 0 89-41 89-101s-29-99-89-99c-61 0-89 39-89 99S79-25 140-24" id="aa"/><path d="M195 0l-74-108L45 0H8l94-129-87-119h37l69 98 67-98h37l-84 118L233 0h-38" id="ab"/><path d="M137-103V0h-34v-103L8-248h37l75 118 75-118h37" id="ac"/><g id="i"><use transform="matrix(0.05,0,0,0.05,0,0)" xlink:href="#Y"/><use transform="matrix(0.05,0,0,0.05,12,0)" xlink:href="#Z"/><use transform="matrix(0.05,0,0,0.05,24.950000000000003,0)" xlink:href="#aa"/><use transform="matrix(0.05,0,0,0.05,38.95,0)" xlink:href="#ab"/><use transform="matrix(0.05,0,0,0.05,50.95,0)" xlink:href="#ac"/></g><path d="M205 0l-28-72H64L36 0H1l101-248h38L239 0h-34zm-38-99l-47-123c-12 45-31 82-46 123h93" id="ad"/><g id="j"><use transform="matrix(0.05,0,0,0.05,0,0)" xlink:href="#ad"/><use transform="matrix(0.05,0,0,0.05,12,0)" xlink:href="#Y"/><use transform="matrix(0.05,0,0,0.05,24,0)" xlink:href="#Y"/></g><path d="M212-179c-10-28-35-45-73-45-59 0-87 40-87 99 0 60 29 101 89 101 43 0 62-24 78-52l27 14C228-24 195 4 139 4 59 4 22-46 18-125c-6-104 99-153 187-111 19 9 31 26 39 46" id="ae"/><path d="M190 0L58-211 59 0H30v-248h39L202-35l-2-213h31V0h-41" id="af"/><path d="M185-189c-5-48-123-54-124 2 14 75 158 14 163 119 3 78-121 87-175 55-17-10-28-26-33-46l33-7c5 56 141 63 141-1 0-78-155-14-162-118-5-82 145-84 179-34 5 7 8 16 11 25" id="ag"/><path d="M232-93c-1 65-40 97-104 97C67 4 28-28 28-90v-158h33c8 89-33 224 67 224 102 0 64-133 71-224h33v155" id="ah"/><path d="M30 0v-248h33v221h125V0H30" id="ai"/><g id="k"><use transform="matrix(0.05,0,0,0.05,0,0)" xlink:href="#ae"/><use transform="matrix(0.05,0,0,0.05,12.950000000000001,0)" xlink:href="#aa"/><use transform="matrix(0.05,0,0,0.05,26.950000000000003,0)" xlink:href="#af"/><use transform="matrix(0.05,0,0,0.05,39.900000000000006,0)" xlink:href="#ag"/><use transform="matrix(0.05,0,0,0.05,51.900000000000006,0)" xlink:href="#ah"/><use transform="matrix(0.05,0,0,0.05,64.85000000000001,0)" xlink:href="#ai"/></g><path d="M33 0v-248h34V0H33" id="aj"/><path d="M30 0v-248h187v28H63v79h144v27H63v87h162V0H30" id="ak"/><path d="M127-220V0H93v-220H8v-28h204v28h-85" id="al"/><g id="l"><use transform="matrix(0.05,0,0,0.05,0,0)" xlink:href="#ae"/><use transform="matrix(0.05,0,0,0.05,12.950000000000001,0)" xlink:href="#ai"/><use transform="matrix(0.05,0,0,0.05,22.950000000000003,0)" xlink:href="#aj"/><use transform="matrix(0.05,0,0,0.05,27.950000000000003,0)" xlink:href="#ak"/><use transform="matrix(0.05,0,0,0.05,39.95,0)" xlink:href="#af"/><use transform="matrix(0.05,0,0,0.05,52.900000000000006,0)" xlink:href="#al"/></g><path d="M137 0h-34L2-248h35l83 218 83-218h36" id="am"/><g id="m"><use transform="matrix(0.05,0,0,0.05,0,0)" xlink:href="#ag"/><use transform="matrix(0.05,0,0,0.05,12,0)" xlink:href="#ak"/><use transform="matrix(0.05,0,0,0.05,24,0)" xlink:href="#Z"/><use transform="matrix(0.05,0,0,0.05,36.6,0)" xlink:href="#am"/><use transform="matrix(0.05,0,0,0.05,48.6,0)" xlink:href="#ak"/><use transform="matrix(0.05,0,0,0.05,60.6,0)" xlink:href="#Z"/></g><path fill="#ee4e8b" d="M30 0v-248h33v221h125V0H30" id="an"/><path fill="#ee4e8b" d="M30 0v-248h187v28H63v79h144v27H63v87h162V0H30" id="ao"/><path fill="#ee4e8b" d="M205 0l-28-72H64L36 0H1l101-248h38L239 0h-34zm-38-99l-47-123c-12 45-31 82-46 123h93" id="ap"/><path fill="#ee4e8b" d="M30-248c118-7 216 8 213 122C240-48 200 0 122 0H30v-248zM63-27c89 8 146-16 146-99s-60-101-146-95v194" id="aq"/><path fill="#ee4e8b" d="M233-177c-1 41-23 64-60 70L243 0h-38l-65-103H63V0H30v-248c88 3 205-21 203 71zM63-129c60-2 137 13 137-47 0-61-80-42-137-45v92" id="ar"/><g id="n"><use transform="matrix(0.05,0,0,0.05,0,0)" xlink:href="#an"/><use transform="matrix(0.05,0,0,0.05,10,0)" xlink:href="#ao"/><use transform="matrix(0.05,0,0,0.05,22,0)" xlink:href="#ap"/><use transform="matrix(0.05,0,0,0.05,34,0)" xlink:href="#aq"/><use transform="matrix(0.05,0,0,0.05,46.95,0)" xlink:href="#ao"/><use transform="matrix(0.05,0,0,0.05,58.95,0)" xlink:href="#ar"/></g><g id="o"><use transform="matrix(0.05,0,0,0.05,0,0)" xlink:href="#ag"/><use transform="matrix(0.05,0,0,0.05,12,0)" xlink:href="#ak"/><use transform="matrix(0.05,0,0,0.05,24,0)" xlink:href="#Z"/><use transform="matrix(0.05,0,0,0.05,36.6,0)" xlink:href="#am"/><use transform="matrix(0.05,0,0,0.05,48.6,0)" xlink:href="#ak"/><use transform="matrix(0.05,0,0,0.05,60.6,0)" xlink:href="#Z"/></g><path fill="#dd3522" d="M186 0v-106H76V0H24v-248h52v99h110v-99h50V0h-50" id="as"/><path fill="#dd3522" d="M136-208V0H84v-208H4v-40h212v40h-80" id="at"/><path fill="#dd3522" d="M24-248c93 1 206-16 204 79-1 75-69 88-152 82V0H24v-248zm52 121c47 0 100 7 100-41 0-47-54-39-100-39v80" id="au"/><g id="p"><use transform="matrix(0.04938271604938272,0,0,0.04938271604938272,0,0)" xlink:href="#as"/><use transform="matrix(0.04938271604938272,0,0,0.04938271604938272,12.790123456790125,0)" xlink:href="#at"/><use transform="matrix(0.04938271604938272,0,0,0.04938271604938272,23.60493827160494,0)" xlink:href="#at"/><use transform="matrix(0.04938271604938272,0,0,0.04938271604938272,34.41975308641975,0)" xlink:href="#au"/></g><path fill="#dd3522" d="M67-125c0 54 23 88 75 88 28 0 53-7 68-21v-34h-60v-39h108v91C232-14 192 4 140 4 58 4 20-42 15-125 8-236 126-280 215-234c19 10 29 26 37 47l-47 15c-11-23-29-39-63-39-53 1-75 33-75 86" id="av"/><path fill="#dd3522" d="M240-174c0 40-23 61-54 70L253 0h-59l-57-94H76V0H24v-248c93 4 217-23 216 74zM76-134c48-2 112 12 112-38 0-48-66-32-112-35v73" id="aw"/><path fill="#dd3522" d="M67-125c0 53 21 87 73 88 37 1 54-22 65-47l45 17C233-25 199 4 140 4 58 4 20-42 15-125 8-235 124-281 211-232c18 10 29 29 36 50l-46 12c-8-25-30-41-62-41-52 0-71 34-72 86" id="ax"/><g id="q"><use transform="matrix(0.04938271604938272,0,0,0.04938271604938272,0,0)" xlink:href="#av"/><use transform="matrix(0.04938271604938272,0,0,0.04938271604938272,13.827160493827162,0)" xlink:href="#aw"/><use transform="matrix(0.04938271604938272,0,0,0.04938271604938272,26.617283950617285,0)" xlink:href="#au"/><use transform="matrix(0.04938271604938272,0,0,0.04938271604938272,38.46913580246914,0)" xlink:href="#ax"/></g><path fill="#147eba" d="M67-125c0 54 23 88 75 88 28 0 53-7 68-21v-34h-60v-39h108v91C232-14 192 4 140 4 58 4 20-42 15-125 8-236 126-280 215-234c19 10 29 26 37 47l-47 15c-11-23-29-39-63-39-53 1-75 33-75 86" id="ay"/><path fill="#147eba" d="M240-174c0 40-23 61-54 70L253 0h-59l-57-94H76V0H24v-248c93 4 217-23 216 74zM76-134c48-2 112 12 112-38 0-48-66-32-112-35v73" id="az"/><path fill="#147eba" d="M24-248c93 1 206-16 204 79-1 75-69 88-152 82V0H24v-248zm52 121c47 0 100 7 100-41 0-47-54-39-100-39v80" id="aA"/><path fill="#147eba" d="M67-125c0 53 21 87 73 88 37 1 54-22 65-47l45 17C233-25 199 4 140 4 58 4 20-42 15-125 8-235 124-281 211-232c18 10 29 29 36 50l-46 12c-8-25-30-41-62-41-52 0-71 34-72 86" id="aB"/><g id="r"><use transform="matrix(0.04938271604938272,0,0,0.04938271604938272,0,0)" xlink:href="#ay"/><use transform="matrix(0.04938271604938272,0,0,0.04938271604938272,13.827160493827162,0)" xlink:href="#az"/><use transform="matrix(0.04938271604938272,0,0,0.04938271604938272,26.617283950617285,0)" xlink:href="#aA"/><use transform="matrix(0.04938271604938272,0,0,0.04938271604938272,38.46913580246914,0)" xlink:href="#aB"/></g><path fill="#147eba" d="M220-157c-53 9-28 100-34 157h-49v-107c1-27-5-49-29-50C55-147 81-57 75 0H25l-1-190h47c2 12-1 28 3 38 10-53 101-56 108 0 13-22 24-43 59-42 82 1 51 116 57 194h-49v-107c-1-25-5-48-29-50" id="aC"/><path fill="#147eba" d="M136-208V0H84v-208H4v-40h212v40h-80" id="aD"/><path fill="#147eba" d="M24 0v-248h52v208h133V0H24" id="aE"/><path fill="#147eba" d="M169-182c-1-43-94-46-97-3 18 66 151 10 154 114 3 95-165 93-204 36-6-8-10-19-12-30l50-8c3 46 112 56 116 5-17-69-150-10-154-114-4-87 153-88 188-35 5 8 8 18 10 28" id="aF"/><g id="s"><use transform="matrix(0.04938271604938272,0,0,0.04938271604938272,0,0)" xlink:href="#aC"/><use transform="matrix(0.04938271604938272,0,0,0.04938271604938272,15.80246913580247,0)" xlink:href="#aD"/><use transform="matrix(0.04938271604938272,0,0,0.04938271604938272,26.617283950617285,0)" xlink:href="#aE"/><use transform="matrix(0.04938271604938272,0,0,0.04938271604938272,37.4320987654321,0)" xlink:href="#aF"/></g></defs></g></svg>