<svg xmlns="http://www.w3.org/2000/svg" xmlns:xlink="http://www.w3.org/1999/xlink" xmlns:lucid="lucid" width="2280" height="1240"><g transform="translate(-60 -60)" lucid:page-tab-id="0_0"><path d="M0 0h2400v1350H0z" fill="#fff"/><path d="M1920 126a6 6 0 0 1 6-6h348a6 6 0 0 1 6 6v1108a6 6 0 0 1-6 6h-348a6 6 0 0 1-6-6z" fill="#ee4e8b" fill-opacity=".1"/><path d="M1200 126a6 6 0 0 1 6-6h628a6 6 0 0 1 6 6v508a6 6 0 0 1-6 6h-628a6 6 0 0 1-6-6z" fill="#147eba" fill-opacity=".1"/><path d="M720 86a6 6 0 0 1 6-6h1588a6 6 0 0 1 6 6v1188a6 6 0 0 1-6 6H726a6 6 0 0 1-6-6z" fill="#fff" fill-opacity="0"/><path d="M736.5 80h8.98m6 0h8.98m6 0h8.98m6 0h8.98m6 0h8.98m6 0h8.98m6 0h8.98m6 0h8.98m6 0h9m5.98 0h9m5.98 0h9m5.98 0h9m5.98 0h9m5.98 0h9m5.98 0h9m5.98 0h9m5.98 0h9m6 0h8.98m6 0h8.98m6 0h8.98m6 0h8.98m6 0h8.98m6 0h8.98m6 0h8.98m6 0h8.98m6 0h8.98m6 0h8.98m6 0h9m5.98 0h9m5.98 0h9m5.98 0h9m5.98 0h9m5.98 0h9m5.98 0h9m6 0h8.97m6 0h9m5.98 0h9m6 0h8.98m6 0h8.98m6 0h8.98m6 0h8.98m6 0h8.98m6 0h8.98m6 0h8.98m6 0h8.98m6 0h9m5.98 0h9m5.98 0h9m5.98 0h9m5.98 0h9m5.98 0h9m6 0h8.97m6 0h9m6 0h8.97m6 0h9m5.98 0h9m5.98 0h9m5.98 0h9m6 0h8.98m6 0h8.98m6 0h8.98m6 0h9m5.98 0h9m5.98 0h9m5.98 0h9m5.98 0h9m5.98 0h9m5.98 0h9m5.98 0h9m5.98 0h9m6 0h8.97m6 0h9m5.98 0h9m5.98 0h9m6 0h8.98m6 0h8.98m6 0h8.98m6 0h8.98m6 0h8.98m6 0h8.98m6 0h9m5.98 0h9m5.98 0h9m5.98 0h9m5.98 0h9m5.98 0h9m5.98 0h9m6 0h8.97m6 0h9m5.98 0h9m6 0h8.98m6 0h8.98m6 0h8.98m6 0h8.98m6 0h8.98m6 0h8.98m6 0h8.98m6 0h9m5.98 0h9m5.98 0h9m5.98 0h9m5.98 0h9m5.98 0h9m5.98 0h9m6 0h8.97m6 0h4.5l.94.07.9.22.88.35.8.5.72.6.6.72.5.8.37.88.23.9.07.95v4.5m0 6.03v9.02m0 6.02v9.02m0 6v9.03m0 6v9.03m0 6.02v9.02m0 6.02v9.02m0 6v9.04m0 6v9.03m0 6.03v9.02m0 6.02v9.02m0 6v9.03m0 6v9.04m0 6V286m0 6.02v9.02m0 6.02v9.02m0 6.02v9.02m0 6v9.04m0 6v9.03m0 6v9.03m0 6.02v9.02m0 6.02v9m0 6.02v9.03m0 6v9.03m0 6.02v9.02m0 6.02v9.02m0 6.02v9.02m0 6v9.04m0 6v9.03m0 6.02v9m0 6.03v9.02m0 6.02v9.02m0 6v9.03m0 6v9.03m0 6.02v9.02m0 6.02v9.02m0 6.02v9.02m0 6v9.04m0 6v9.03m0 6.02V677m0 6v9.03m0 6.02v9.02m0 6v9.04m0 6.02v9.02m0 6.02v9.02m0 6.02v9.02m0 6v9.04m0 6v9.04m0 6v9.03m0 6.02v9.02m0 6.02v9m0 6.02v9.03m0 6v9.04m0 6v9.02m0 6.02v9.02m0 6.02v9.02m0 6v9.04m0 6v9.04m0 6v9.03m0 6.03v9.02m0 6.02v9.02m0 6v9.03m0 6v9.04m0 6v9.03m0 6.02v9.02m0 6.02v9.02m0 6v9.04m0 6v9.04m0 6v9.03m0 6v9.03m0 6.02v9.02m0 6v9.04m0 6.02v9.03m0 6v9.03m0 6.02v9.02m0 6.02v9.02m0 6.02v9.02m0 6v9.03m0 6.02v9.02m0 6.02v4.5l-.07.94-.22.9-.35.88-.5.8-.6.72-.72.6-.8.5-.88.37-.9.23-.95.07h-4.5m-6 0h-8.97m-6 0h-9m-5.98 0h-9m-5.98 0h-9m-5.98 0h-9m-6 0h-8.98m-6 0h-8.98m-6 0h-8.98m-6 0h-8.98m-6 0h-9m-5.98 0h-9m-5.98 0h-9m-5.98 0h-9m-5.98 0h-9m-5.98 0h-9m-5.98 0h-9m-6 0h-8.97m-6 0h-8.98m-6 0h-9m-5.98 0h-9m-5.98 0h-9m-6 0h-8.98m-6 0h-8.98m-6 0h-8.98m-6 0H1935m-6 0H1920m-6 0h-8.98m-6 0h-9m-5.98 0h-9m-5.98 0h-9m-5.98 0h-9m-5.98 0h-9m-5.98 0h-9m-5.98 0h-9m-6 0h-8.97m-6 0h-9m-5.98 0h-9m-6 0h-8.98m-6 0h-8.98m-6 0h-8.98m-6 0h-8.98m-6 0h-8.98m-6 0h-8.98m-6 0h-8.98m-6 0h-8.98m-6 0h-9m-5.98 0h-9m-5.98 0h-9m-5.98 0h-9m-5.98 0h-9m-5.98 0h-9m-6 0h-8.97m-6 0h-9m-6 0h-8.97m-6 0h-9m-5.98 0h-9m-5.98 0h-9m-5.98 0h-9m-6 0h-8.98m-6 0h-8.98m-6 0h-8.98m-6 0h-9m-5.98 0h-9m-5.98 0h-9m-5.98 0h-9m-5.98 0h-9m-5.98 0h-9m-5.98 0h-9m-5.98 0h-9m-5.98 0h-9m-6 0h-8.97m-6 0h-9m-5.98 0h-9m-5.98 0h-9m-6 0h-8.98m-6 0h-8.98m-6 0h-8.98m-6 0H1141m-6 0H1126m-6 0h-8.98m-6 0h-9m-5.98 0h-9m-5.98 0h-9m-5.98 0h-9m-5.98 0h-9m-5.98 0h-9m-5.98 0h-9m-6 0h-8.97m-6 0h-9m-5.98 0h-9m-6 0h-8.98m-6 0h-8.98m-6 0h-8.98m-6 0h-8.98m-6 0h-8.98m-6 0h-8.98m-6 0h-8.98m-6 0h-9m-5.98 0h-9m-5.98 0h-9m-5.98 0h-9m-5.98 0h-9m-5.98 0h-9m-5.98 0h-9m-6 0h-8.97m-6 0H726l-.94-.07-.9-.22-.88-.35-.8-.5-.72-.6-.6-.72-.5-.8-.37-.88-.23-.9-.07-.95v-4.5m0-6.03v-9.02m0-6.02v-9.02m0-6v-9.03m0-6v-9.03m0-6.02v-9.02m0-6.02v-9.02m0-6v-9.04m0-6v-9.04m0-6v-9.03m0-6.02v-9.02m0-6v-9.03m0-6v-9.04m0-6v-9.04m0-6.02v-9.02m0-6.02v-9.02m0-6.02v-9.02m0-6v-9.04m0-6v-9.04m0-6v-9.03m0-6.02v-9.02m0-6.02v-9m0-6.02v-9.03m0-6v-9.03m0-6.02v-9.02m0-6.02v-9.02m0-6.02v-9.02m0-6v-9.04m0-6v-9.04m0-6v-9.03m0-6.03v-9.02m0-6.02v-9.02m0-6v-9.03m0-6v-9.03m0-6.02v-9.02m0-6.02v-9.02m0-6.02v-9.02m0-6v-9.04m0-6v-9.03m0-6.02V683m0-6v-9.03m0-6.02v-9.02m0-6v-9.04m0-6.02v-9.02m0-6.02v-9.02m0-6.02v-9.02m0-6v-9.04m0-6v-9.04m0-6v-9.03m0-6.02v-9.02m0-6.02v-9m0-6.03v-9.02m0-6v-9.04m0-6v-9.02m0-6.02v-9.02m0-6.02v-9.02m0-6v-9.04m0-6v-9.04m0-6v-9.03m0-6.03v-9.02m0-6.02v-9.02m0-6v-9.03m0-6v-9.04m0-6v-9.03m0-6.02v-9.02m0-6.02v-9.02m0-6v-9.04m0-6v-9.04m0-6v-9.03m0-6v-9.03m0-6.02v-9.02m0-6.02v-9m0-6.02v-9.03m0-6v-9.03m0-6.02v-9.02m0-6.02v-9.02m0-6v-9.04m0-6v-9.03m0-6.02v-9.02m0-6.02V86l.07-.94.22-.9.35-.88.5-.8.6-.72.72-.6.8-.5.88-.37.9-.23.95-.07h4.5" stroke="#147eba" stroke-width="3" fill="none"/><path d="M720 80h56v56h-56V80z" stroke="#fff" stroke-opacity="0" fill="#147eba"/><path d="M763.84 109.36l-5.96-7.36 5.96-7.4h-26.17V92.5c.98-.32 1.62-1.16 1.62-2.2-.1-1.15-1.03-2.02-2.17-2.14-1.3-.08-2.44.87-2.53 2.15 0 1.03.63 1.87 1.58 2.2v33.88h-4.02v1.6h9.44v-1.6h-3.93v-17.04zM736.88 89.6c.4-.03.76.33.76.73 0 .44-.32.75-.73.75-.4.05-.75-.3-.75-.7v-.05c0-.4.32-.72.73-.72zm23.6 6.62l-4.65 5.78 4.65 5.73h-22.8v-11.5z" stroke="#fff" stroke-opacity="0" fill="#fff"/><use xlink:href="#a" transform="matrix(1,0,0,1,791,100) translate(0 18.844444444444445)"/><use xlink:href="#b" transform="matrix(1,0,0,1,791,100) translate(162.27160493827162 18.844444444444445)"/><path d="M80 86a6 6 0 0 1 6-6h308a6 6 0 0 1 6 6v1188a6 6 0 0 1-6 6H86a6 6 0 0 1-6-6z" stroke="#dd3522" stroke-width="3" fill="#fff" fill-opacity="0"/><use xlink:href="#c" transform="matrix(1,0,0,1,80,100) translate(35.84259259259258 18.844444444444445)"/><use xlink:href="#d" transform="matrix(1,0,0,1,80,100) translate(165.65987654320986 18.844444444444445)"/><use xlink:href="#e" transform="matrix(1,0,0,1,80,100) translate(91.42716049382716 47.111111111111114)"/><use xlink:href="#f" transform="matrix(1,0,0,1,80,100) translate(147.5679012345679 47.111111111111114)"/><path d="M760 571a6 6 0 0 1 6-6h228a6 6 0 0 1 6 6v248a6 6 0 0 1-6 6H766a6 6 0 0 1-6-6z" stroke="#147eba" stroke-width="3" fill="#fff" fill-opacity="0"/><use xlink:href="#g" transform="matrix(1,0,0,1,759.9999999999997,585) translate(7.162345679012333 18.844444444444445)"/><use xlink:href="#h" transform="matrix(1,0,0,1,759.9999999999997,585) translate(119.5746913580247 18.844444444444445)"/><path d="M1200 726a6 6 0 0 1 6-6h628a6 6 0 0 1 6 6v508a6 6 0 0 1-6 6h-628a6 6 0 0 1-6-6z" fill="#147eba" fill-opacity=".1"/><path d="M880 614.02c55.2 0 100 44.8 100 100s-44.8 100-100 100-100-44.8-100-100 44.8-100 100-100zm0 191c50.2 0 91-40.8 91-91s-40.8-91-91-91-91 40.8-91 91 40.8 91 91 91zm63.6-62c2.6 0 4.6 2 4.6 4.4v18.2c0 2.6-2 4.6-4.6 4.6h-18.2c-2.4 0-4.4-2-4.4-4.6v-4.6h-50c-2.6 0-4.6-2-4.6-4.4v-18.2h9v13.6H921v-4.6c0-2.4 2-4.4 4.4-4.4zm0-86.4c2.6 0 4.6 2 4.6 4.4v18.2c0 2.6-2 4.6-4.6 4.6h-18.2c-2.4 0-4.4-2-4.4-4.6v-4.4h-45.6v13.6h-9v-18.2c0-2.6 2-4.6 4.6-4.6h50v-4.6c0-2.4 2-4.4 4.4-4.4zm-91 81.6l6.4 6.4-11.8 11.8c-.8.8-2 1.2-3.2 1.2-1.2 0-2.4-.4-3.2-1.2l-11.6-11.8 6.4-6.4 3.4 3.6v-56.4l-3.8 4-6.4-6.4 11.6-11.8c1-.8 2-1.2 3.2-1.2 1.2 0 2.4.4 3.2 1.2l11.8 11.8-6.4 6.4-4-4v57.2zm91-37.8c2.6 0 4.6 2 4.6 4.6v18c0 2.6-2 4.6-4.6 4.6h-18.2c-2.4 0-4.4-2-4.4-4.6v-4.4h-18.2v-9.2H921v-4.4c0-2.6 2-4.6 4.4-4.6zM834 717.22l-11.8 11.8-6.4-6.6 4-3.8h-24.6v-9.2h24.6l-4-3.8 6.4-6.6 11.8 11.8c.8.8 1.2 2 1.2 3.2 0 1.2-.4 2.4-1.2 3.2zm36.6 5.2l-6.4 6.6-11.8-11.8c-.8-.8-1.2-2-1.2-3.2 0-1.2.4-2.4 1.2-3.2l11.8-11.8 6.4 6.6-4 3.8h24.2v9.2h-24.2zm59.4-47.6h9v-9.2h-9zm0 43.8h9v-9.2h-9zm0 42.4h9v-9h-9zM1339.2 760l86.4 48.13-4.8 7.92-77-42.98v81.4h78.6l-22-21.2 6.6-6.53 33 32.1-33 31.87-6.6-6.32 21.4-20.8h-78v81.4l77-42.98 4.8 7.92-86.4 48.13-86.2-48.13 4.6-7.92 77 42.98v-81.4h-79l24 23.17-6.6 6.34-33-31.9 33-31.88 6.6 6.33-19.4 18.82h74.4v-81.4l-77 42.98-4.6-7.92z" stroke="#000" stroke-opacity="0" fill="#147eba"/><path d="M1253 808.32l86.2-48.32 86.2 48.13-4.6 7.92-13.6 10.9 32.8 31.88-33 31.88 13.8 11.5 4.8 7.72-86.4 48.13-86.4-48.13 4.8-7.92 15.4-8.9-33-31.7 33-32.08-15.4-13.47z" stroke="#000" stroke-opacity="0" fill="#005710" fill-opacity="0"/><use xlink:href="#i" transform="matrix(1,0,0,1,1210,967.0508474576271) translate(89.31049382716049 18.844444444444445)"/><path d="M1604.4 1027.93c1.38.8 2.25 2.18 2.25 3.76v94.66c0 1.58-.87 2.97-2.26 3.76l-82.15 47.34c-.7.4-1.56.6-2.25.6-.7 0-1.56-.2-2.25-.6l-82.14-47.34c-1.38-.8-2.25-2.18-2.25-3.76v-94.67c0-1.6.87-2.98 2.26-3.77l82.15-47.34c1.38-.8 3.12-.8 4.5 0zM1520 989.7l-74.86 42.98 74.86 43.18 74.86-43.18zm-77.64 51.9v82.2l73.13 41.97v-82.2zm82.15 124.17l73.14-41.98v-82.2l-73.13 41.98z" stroke="#000" stroke-opacity="0" fill="#147eba"/><use xlink:href="#j" transform="matrix(1,0,0,1,1403.352754237288,1187.0508474576272) translate(93.44444444444444 18.844444444444445)"/><path d="M1794.7 765c2.44 0 4.33 1.88 4.33 4.33v179.4c0 2.44-1.88 4.32-4.33 4.32h-179.4c-2.44 0-4.33-1.88-4.33-4.32v-179.4c0-2.45 1.88-4.33 4.33-4.33zm-175.08 179.4h170.76V773.65h-170.76z" stroke="#000" stroke-opacity="0" fill="#ee4e8b"/><use xlink:href="#k" transform="matrix(1,0,0,1,1580.9745762711864,962.0508474576271) translate(30.89938271604936 18.844444444444445)"/><use xlink:href="#l" transform="matrix(1,0,0,1,1580.9745762711864,962.0508474576271) translate(134.54382716049383 18.844444444444445)"/><path d="M2189.7 600.98c2.45 0 4.33 1.88 4.33 4.32v179.4c0 2.44-1.9 4.32-4.33 4.32h-179.4c-2.44 0-4.33-1.88-4.33-4.32V605.3c0-2.44 1.88-4.32 4.33-4.32zm-175.07 179.4h170.74V609.63h-170.74z" stroke="#000" stroke-opacity="0" fill="#ee4e8b"/><use xlink:href="#k" transform="matrix(1,0,0,1,1975.9745762711864,798.0254237288135) translate(24.552469135802454 18.844444444444445)"/><use xlink:href="#m" transform="matrix(1,0,0,1,1975.9745762711864,798.0254237288135) translate(128.19691358024693 18.844444444444445)"/><use xlink:href="#n" transform="matrix(1,0,0,1,1975.9745762711864,798.0254237288135) translate(76.21111111111111 47.111111111111114)"/><path d="M2189.7 940c2.45 0 4.33 1.88 4.33 4.33v179.4c0 2.44-1.9 4.32-4.33 4.32h-179.4c-2.44 0-4.33-1.88-4.33-4.32v-179.4c0-2.45 1.88-4.33 4.33-4.33zm-175.07 179.4h170.74V948.65h-170.74z" stroke="#000" stroke-opacity="0" fill="#ee4e8b"/><use xlink:href="#k" transform="matrix(1,0,0,1,1975.9745762711864,1137.050847457627) translate(24.552469135802454 18.844444444444445)"/><use xlink:href="#o" transform="matrix(1,0,0,1,1975.9745762711864,1137.050847457627) translate(128.19691358024693 18.844444444444445)"/><path d="M297 683.4c1.4.96 2.2 2.48 2.2 4v66.3c0 1.72-.8 3.24-2.2 4l-54.6 31.73c-.8.38-1.6.57-2.4.57-.8 0-1.6-.2-2.4-.76-.4-.2-.6-.38-.8-.76l-53.6-32.3c-1.4-.95-2.2-2.28-2.2-4V687.4c-.2-1.33.2-2.66 1-3.8.4-.38.8-.76 1.2-.95l52.4-32.68c1.4-.95 3.2-.95 4.6-.2zm34.4-83.4c4.8 0 8.6 3.8 8.6 8.36v129c0 4.57-3.8 8.37-8.6 8.37h-23.2v-9.12H331V636.5H149.2L149 736.6h23v9.13h-23.6c-4.6 0-8.4-3.8-8.4-8.36l.2-129c0-4.57 3.8-8.37 8.4-8.37zm-182.2 27.36H331v-18.24H149.2zm95.4 150.1l45.4-26.4v-56.63l-45.4 26.4zm-54.4-83.22v55.48l45.4 27.55v-56.05zM238 659.1l-43.4 27.16 45.4 26.98 45-26.4zm74.8 68.4v-77.34h9v77.33zm-150-109.26c0 2.47-2 4.56-4.4 4.56-2.6 0-4.6-2.1-4.6-4.56 0-2.47 2-4.56 4.6-4.56 2.4 0 4.4 2.1 4.4 4.56zm13.8 0c0 2.47-2.2 4.56-4.6 4.56-2.6 0-4.6-2.1-4.6-4.56 0-2.47 2-4.56 4.6-4.56 2.4 0 4.6 2.1 4.6 4.56zm13.6 0c0 2.47-2.2 4.56-4.6 4.56-2.6 0-4.6-2.1-4.6-4.56 0-2.47 2-4.56 4.6-4.56 2.4 0 4.6 2.1 4.6 4.56z" stroke="#000" stroke-opacity="0" fill="#e35848"/><path d="M145.3 606.23h189.8V741.5H145.3V606.24z" stroke="#000" stroke-opacity="0" fill-opacity="0"/><path d="M297 1023.4c1.4.96 2.2 2.48 2.2 4v66.3c0 1.72-.8 3.24-2.2 4l-54.6 31.73c-.8.38-1.6.57-2.4.57-.8 0-1.6-.2-2.4-.76-.4-.2-.6-.38-.8-.76l-53.6-32.3c-1.4-.95-2.2-2.28-2.2-4v-64.78c-.2-1.33.2-2.66 1-3.8.4-.38.8-.76 1.2-.95l52.4-32.68c1.4-.95 3.2-.95 4.6-.2zm34.4-83.4c4.8 0 8.6 3.8 8.6 8.36v129c0 4.57-3.8 8.37-8.6 8.37h-23.2v-9.12H331V976.5H149.2l-.2 100.13h23v9.13h-23.6c-4.6 0-8.4-3.8-8.4-8.36l.2-129c0-4.57 3.8-8.37 8.4-8.37zm-182.2 27.36H331v-18.24H149.2zm95.4 150.1l45.4-26.4v-56.63l-45.4 26.4zm-54.4-83.22v55.48l45.4 27.55v-56.05zM238 999.1l-43.4 27.16 45.4 26.98 45-26.4zm74.8 68.4v-77.34h9v77.33zm-150-109.26c0 2.47-2 4.56-4.4 4.56-2.6 0-4.6-2.1-4.6-4.56 0-2.47 2-4.56 4.6-4.56 2.4 0 4.4 2.1 4.4 4.56zm13.8 0c0 2.47-2.2 4.56-4.6 4.56-2.6 0-4.6-2.1-4.6-4.56 0-2.47 2-4.56 4.6-4.56 2.4 0 4.6 2.1 4.6 4.56zm13.6 0c0 2.47-2.2 4.56-4.6 4.56-2.6 0-4.6-2.1-4.6-4.56 0-2.47 2-4.56 4.6-4.56 2.4 0 4.6 2.1 4.6 4.56z" stroke="#000" stroke-opacity="0" fill="#e35848"/><path d="M145.3 946.23h189.8v135.28H145.3V946.24z" stroke="#000" stroke-opacity="0" fill-opacity="0"/><path d="M297 343.4c1.4.96 2.2 2.48 2.2 4v66.3c0 1.72-.8 3.24-2.2 4l-54.6 31.73c-.8.38-1.6.57-2.4.57-.8 0-1.6-.2-2.4-.76-.4-.2-.6-.38-.8-.76l-53.6-32.3c-1.4-.95-2.2-2.28-2.2-4V347.4c-.2-1.33.2-2.66 1-3.8.4-.38.8-.76 1.2-.95l52.4-32.68c1.4-.95 3.2-.95 4.6-.2zm34.4-83.4c4.8 0 8.6 3.8 8.6 8.36v129c0 4.57-3.8 8.37-8.6 8.37h-23.2v-9.12H331V296.5H149.2L149 396.6h23v9.13h-23.6c-4.6 0-8.4-3.8-8.4-8.36l.2-129c0-4.57 3.8-8.37 8.4-8.37zm-182.2 27.36H331v-18.24H149.2zm95.4 150.1l45.4-26.4v-56.63l-45.4 26.4zm-54.4-83.22v55.48l45.4 27.55v-56.05zM238 319.1l-43.4 27.16 45.4 26.98 45-26.4zm74.8 68.4v-77.34h9v77.33zm-150-109.26c0 2.47-2 4.56-4.4 4.56-2.6 0-4.6-2.1-4.6-4.56 0-2.47 2-4.56 4.6-4.56 2.4 0 4.4 2.1 4.4 4.56zm13.8 0c0 2.47-2.2 4.56-4.6 4.56-2.6 0-4.6-2.1-4.6-4.56 0-2.47 2-4.56 4.6-4.56 2.4 0 4.6 2.1 4.6 4.56zm13.6 0c0 2.47-2.2 4.56-4.6 4.56-2.6 0-4.6-2.1-4.6-4.56 0-2.47 2-4.56 4.6-4.56 2.4 0 4.6 2.1 4.6 4.56z" stroke="#000" stroke-opacity="0" fill="#e35848"/><path d="M145.3 266.23h189.8V401.5H145.3V266.24z" stroke="#000" stroke-opacity="0" fill-opacity="0"/><path d="M561.5 688.94l.06.76.17.7.26.64.36.6.46.54.54.46.6.37.65.27.7.17.76.06h14.26v3h-14.38l-1.1-.1-1.16-.26-1.1-.45-1-.63-.9-.76-.75-.9-.62-1-.44-1.08-.27-1.15-.1-1.1v-15.7h3zm61.8 7.56h-28.65v-3h28.64zm42.96 0h-28.64v-3h28.64zm42.97 0H680.6v-3h28.63zm28.65 0h-14.32v-3h14.32zM561.5 657.76h-3v-31.24h3zm0-46.86h-3v-31.23h3zm0-46.85h-3V532.8h3zm0-46.86h-3v-31.25h3zm0-46.87h-3V439.1h3zm0-46.85h-3v-31.24h3zm-6.33-69.9l1.15.28 1.1.45 1 .63.9.76.75.9.62 1 .44 1.08.27 1.15.1 1.1v15.7h-3v-15.57l-.06-.76-.17-.7-.26-.64-.36-.6-.46-.54-.54-.46-.6-.37-.65-.27-.7-.17-.76-.06h-14.1v-3h14.22zm-199.5 2.92H341.5v-3h14.17zm42.5 0h-28.34v-3h28.34zm42.5 0h-28.34v-3h28.34zm85 0h-14.24v-3h14.24z" stroke="#dd3522" stroke-width=".05" fill="#dd3522"/><path d="M341.54 356.5H340v-3h1.54z" fill="#dd3522"/><path d="M341.56 356.52h-1.58v-3.04h1.58zm-1.54-3v2.96h1.5v-2.96z" stroke="#dd3522" stroke-width=".05" fill="#dd3522"/><path d="M753.65 695l-14.27 4.63v-9.26z" fill="#dd3522"/><path d="M758.5 695l-20.62 6.7v-13.4zm-17.62 2.57l7.9-2.57-7.9-2.57z" stroke="#dd3522" stroke-width=".05" fill="#dd3522"/><use xlink:href="#p" transform="matrix(1,0,0,1,450.69828165464924,341.00000000000006) translate(0 18.666666666666668)"/><path d="M356.18 696.5H341.5v-3h14.68zm44.04 0h-29.36v-3h29.36zm44.04 0H414.9v-3h29.37zm132.13 0h-29.37v-3h29.36zm44.03 0h-29.36v-3h29.36zm44.05 0H635.1v-3h29.38zm44.04 0h-29.36v-3h29.36zm29.36 0H723.2v-3h14.68zm-205.53 0h-19.77v-3h19.77z" stroke="#dd3522" stroke-width=".05" fill="#dd3522"/><path d="M341.54 696.5H340v-3h1.54z" fill="#dd3522"/><path d="M341.56 696.52h-1.58v-3.04h1.58zm-1.54-3v2.96h1.5v-2.96z" stroke="#dd3522" stroke-width=".05" fill="#dd3522"/><path d="M753.65 695l-14.27 4.63v-9.26z" fill="#dd3522"/><path d="M758.5 695l-20.62 6.7v-13.4zm-17.62 2.57l7.9-2.57-7.9-2.57z" stroke="#dd3522" stroke-width=".05" fill="#dd3522"/><use xlink:href="#q" transform="matrix(1,0,0,1,449.2512526336076,681) translate(0 18.666666666666668)"/><path d="M355.67 1036.5H341.5v-3h14.17zm42.5 0h-28.34v-3h28.34zm42.5 0h-28.34v-3h28.34zm120.83-7.44l-.1 1.1-.26 1.16-.45 1.1-.63 1-.76.9-.9.75-1 .62-1.08.44-1.15.27-1.1.1h-14.24v-3h14.1l.77-.06.7-.16.64-.27.6-.36.54-.46.46-.54.37-.6.27-.65.17-.7.06-.76v-15.56h3zm-35.83 7.44h-15.44v-3h15.44zm35.83-38.74h-3v-31.24h3zm0-46.86h-3v-31.23h3zm0-46.85h-3V872.8h3zm0-46.86h-3v-31.25h3zm0-46.87h-3V779.1h3zm0-46.85h-3v-31.24h3zm18.82-66.98h-14.26l-.76.06-.7.17-.64.26-.6.36-.54.46-.46.54-.37.6-.27.65-.17.7-.06.76v15.56h-3v-15.68l.1-1.1.26-1.16.45-1.1.63-1 .76-.9.9-.75 1-.62 1.08-.44 1.15-.27 1.1-.1h14.4zm42.97 0h-28.65v-3h28.64zm42.96 0h-28.64v-3h28.64zm42.97 0H680.6v-3h28.63zm28.65 0h-14.32v-3h14.32z" stroke="#dd3522" stroke-width=".05" fill="#dd3522"/><path d="M341.54 1036.5H340v-3h1.54z" fill="#dd3522"/><path d="M341.56 1036.53h-1.58v-3.06h1.58zm-1.54-3v2.94h1.5v-2.94z" stroke="#dd3522" stroke-width=".05" fill="#dd3522"/><path d="M753.65 695l-14.27 4.63v-9.26z" fill="#dd3522"/><path d="M758.5 695l-20.62 6.7v-13.4zm-17.62 2.57l7.9-2.57-7.9-2.57z" stroke="#dd3522" stroke-width=".05" fill="#dd3522"/><use xlink:href="#q" transform="matrix(1,0,0,1,446.90527699737265,1021) translate(0 18.666666666666668)"/><path d="M1021.5 696.5H1003v-3h18.5zm55.5 0h-37v-3h37zm44.5-7.44l-.1 1.1-.26 1.16-.45 1.1-.63 1-.76.9-.9.75-1 .62-1.08.44-1.15.27-1.1.1h-18.57v-3h18.44l.76-.06.7-.17.64-.26.6-.36.54-.46.46-.54.37-.6.28-.65.16-.7.06-.76V673.3h3zm0-31.47h-3v-31.4h3zm0-47.1h-3v-31.42h3zm0-47.12h-3v-31.4h3zm0-47.1h-3v-27.14h3zm0-55.14h-3v-23.38h3zm0-39.1h-3v-31.4h3zm0-47.1h-3v-31.4h3zm0-47.1h-3v-31.4h3zm20.44-67.31h-15.88l-.76.06-.7.15-.64.27-.6.37-.54.45-.46.53-.37.6-.28.66-.16.68-.06.76v15.65h-3v-15.76l.1-1.12.26-1.14.45-1.08.63-1 .76-.9.9-.77 1-.6 1.08-.46 1.15-.3 1.1-.08h16zm47.82 0h-31.88v-3h31.88zm31.88 0h-15.94v-3h15.93z" stroke="#147eba" stroke-width=".05" fill="#147eba"/><path d="M1003.04 696.5h-1.54v-3h1.54z" fill="#147eba"/><path d="M1003.06 696.52h-1.58v-3.04h1.58zm-1.53-3v2.96h1.48v-2.96z" stroke="#147eba" stroke-width=".05" fill="#147eba"/><path d="M1237.4 259.02l-14.27 4.64v-9.27z" fill="#147eba"/><path d="M1242.26 259.02l-20.63 6.7v-13.4zm-17.63 2.58l7.92-2.58-7.9-2.56z" stroke="#147eba" stroke-width=".05" fill="#147eba"/><use xlink:href="#r" transform="matrix(1,0,0,1,1052.7546296296296,461.1354076825921) translate(0 18.666666666666668)"/><use xlink:href="#s" transform="matrix(1,0,0,1,1052.7546296296296,461.1354076825921) translate(69.80555555555556 18.666666666666668)"/><path d="M1121.5 852.97l.06.76.16.68.27.67.36.6.46.53.54.46.6.37.65.27.7.17.76.05h15.88v3h-16l-1.1-.08-1.16-.28-1.1-.45-1-.6-.9-.77-.75-.9-.62-1-.44-1.1-.27-1.13-.1-1.12v-16.95h3zm68.26 7.55h-31.88v-3h31.88zm31.88 0h-15.94v-3h15.93zm-100.14-41.28h-3V792.9h3zm0-54.35h-3v-30.12h3zm-6.33-71.3l1.15.26 1.1.45 1 .63.9.76.75.9.62 1 .44 1.08.27 1.15.1 1.1v16.96h-3v-16.84l-.06-.76-.16-.7-.27-.64-.36-.6-.46-.54-.54-.46-.6-.37-.65-.27-.7-.17-.76-.06h-18.44v-3h18.56zm-93.67 2.9H1003v-3h18.5zm55.5 0h-37v-3h37z" stroke="#147eba" stroke-width=".05" fill="#147eba"/><path d="M1003.04 696.5h-1.54v-3h1.54z" fill="#147eba"/><path d="M1003.06 696.52h-1.58v-3.04h1.58zm-1.53-3v2.96h1.48v-2.96z" stroke="#147eba" stroke-width=".05" fill="#147eba"/><path d="M1237.4 859.02l-14.27 4.64v-9.27z" fill="#147eba"/><path d="M1242.26 859.02l-20.63 6.7v-13.4zm-17.63 2.58l7.92-2.58-7.9-2.56z" stroke="#147eba" stroke-width=".05" fill="#147eba"/><use xlink:href="#r" transform="matrix(1,0,0,1,1052.7546296296296,764.8900160462215) translate(0 18.666666666666668)"/><use xlink:href="#t" transform="matrix(1,0,0,1,1052.7546296296296,764.8900160462215) translate(69.80555555555556 18.666666666666668)"/><path d="M1800.53 254.03h12.24m12.25 0h24.5m12.23 0H1874l.94.07.9.22.88.36.8.5.72.6.6.72.5.8.37.87.23.92.07.92v14.3m0 14.3v28.6m0 14.3v28.6m0 14.3v28.6m0 14.3v28.6m0 14.3v28.6m0 14.3v28.6m0 14.3v28.6m0 14.3v28.58m0 14.3v28.6m0 14.3V689l.07.94.22.9.35.88.5.8.6.72.72.6.8.5.88.37.9.23.95.07h16.56m16.56 0h33.12m16.56 0h16.56" stroke="#cd2264" stroke-width="3" fill="none"/><path d="M1800.56 255.53h-1.53v-3h1.53z" stroke="#cd2264" stroke-width=".05" fill="#cd2264"/><path d="M2001.12 695l-14.26 4.63v-9.26z" stroke="#cd2264" stroke-width="3" fill="#cd2264"/><path d="M1341.5 740h.06l.03-.02.02-.02.02-.02.02-.02v-.03l.02-.03V725.7m0-14.1v-28.18m0-14.1v-28.2m0-14.08v-28.2m0-14.1v-28.18m0-14.1v-28.2m0-14.1V472m0-14.1v-28.2m0-14.08v-14.1M1341.54 740H1340M1341.7 401.54V400" stroke="#3a414a" stroke-width="3" fill="none"/><path d="M1800.53 859.02h12.24m12.25 0h24.5m12.23 0H1874l.94-.07.9-.22.88-.36.8-.5.72-.6.6-.72.5-.8.37-.87.23-.92.07-.94v-16.9m0-16.88v-33.78m0-16.9V734.8m0-16.9V701l.07-.94.22-.9.35-.88.5-.8.6-.72.72-.6.8-.5.88-.37.9-.23.95-.07h16.56m16.56 0h33.12m16.56 0h16.56" stroke="#ee4e8b" stroke-width="3" fill="none"/><path d="M1800.56 860.52h-1.53v-3h1.53z" stroke="#ee4e8b" stroke-width=".05" fill="#ee4e8b"/><path d="M2001.12 695l-14.26 4.63v-9.26z" stroke="#ee4e8b" stroke-width="3" fill="#ee4e8b"/><path d="M2189.7 261.95c2.45 0 4.33 1.88 4.33 4.32v179.4c0 2.45-1.9 4.33-4.33 4.33h-179.4c-2.44 0-4.33-1.88-4.33-4.32v-179.4c0-2.45 1.88-4.33 4.33-4.33zm-175.07 179.4h170.74V270.6h-170.74z" stroke="#000" stroke-opacity="0" fill="#ee4e8b"/><g><use xlink:href="#k" transform="matrix(1,0,0,1,1975.9745762711868,459) translate(24.552469135802454 18.844444444444445)"/><use xlink:href="#o" transform="matrix(1,0,0,1,1975.9745762711868,459) translate(128.19691358024693 18.844444444444445)"/></g><path d="M1339.2 160l86.4 48.13-4.8 7.92-77-42.98v81.4h78.6l-22-21.2 6.6-6.53 33 32.1-33 31.87-6.6-6.32 21.4-20.8h-78v81.4l77-42.98 4.8 7.92-86.4 48.13-86.2-48.13 4.6-7.92 77 42.98v-81.4h-79l24 23.17-6.6 6.34-33-31.9 33-31.88 6.6 6.34-19.4 18.8h74.4v-81.4l-77 43-4.6-7.93z" stroke="#000" stroke-opacity="0" fill="#147eba"/><path d="M1253 208.32l86.2-48.32 86.2 48.13-4.6 7.92-13.6 10.9 32.8 31.88-33 31.88 13.8 11.5 4.8 7.72-86.4 48.13-86.4-48.13 4.8-7.92 15.4-8.9-33-31.7 33-32.08-15.4-13.47z" stroke="#000" stroke-opacity="0" fill="#005710" fill-opacity="0"/><g><use xlink:href="#i" transform="matrix(1,0,0,1,1210,367.05084745762724) translate(89.31049382716049 18.844444444444445)"/></g><path d="M1794.7 160c2.44 0 4.33 1.88 4.33 4.32v179.4c0 2.45-1.88 4.33-4.33 4.33h-179.4c-2.44 0-4.33-1.88-4.33-4.32v-179.4c0-2.45 1.88-4.33 4.33-4.33zm-175.08 179.4h170.76V168.65h-170.76z" stroke="#000" stroke-opacity="0" fill="#ee4e8b"/><g><use xlink:href="#k" transform="matrix(1,0,0,1,1580.9745762711864,357.0508474576271) translate(30.89938271604936 18.844444444444445)"/><use xlink:href="#l" transform="matrix(1,0,0,1,1580.9745762711864,357.0508474576271) translate(134.54382716049383 18.844444444444445)"/></g><path d="M1604.4 429.88c1.38.8 2.25 2.18 2.25 3.76v94.67c0 1.6-.87 2.98-2.26 3.77l-82.15 47.34c-.7.4-1.56.6-2.25.6-.7 0-1.56-.2-2.25-.6l-82.14-47.33c-1.38-.8-2.25-2.18-2.25-3.76v-94.66c0-1.58.87-2.97 2.26-3.76l82.15-47.34c1.38-.8 3.12-.8 4.5 0zm-84.4-38.23l-74.86 42.98L1520 477.8l74.86-43.17zm-77.64 51.9v82.18l73.13 42v-82.2zm82.15 124.17l73.14-42v-82.18l-73.13 42z" stroke="#000" stroke-opacity="0" fill="#147eba"/><g><use xlink:href="#j" transform="matrix(1,0,0,1,1403.352754237288,589) translate(93.44444444444444 18.844444444444445)"/></g><defs><path fill="#147eba" d="M30-248c118-7 216 8 213 122C240-48 200 0 122 0H30v-248zM63-27c89 8 146-16 146-99s-60-101-146-95v194" id="u"/><path fill="#147eba" d="M205 0l-28-72H64L36 0H1l101-248h38L239 0h-34zm-38-99l-47-123c-12 45-31 82-46 123h93" id="v"/><path fill="#147eba" d="M127-220V0H93v-220H8v-28h204v28h-85" id="w"/><path fill="#147eba" d="M212-179c-10-28-35-45-73-45-59 0-87 40-87 99 0 60 29 101 89 101 43 0 62-24 78-52l27 14C228-24 195 4 139 4 59 4 22-46 18-125c-6-104 99-153 187-111 19 9 31 26 39 46" id="x"/><path fill="#147eba" d="M30 0v-248h187v28H63v79h144v27H63v87h162V0H30" id="y"/><path fill="#147eba" d="M190 0L58-211 59 0H30v-248h39L202-35l-2-213h31V0h-41" id="z"/><path fill="#147eba" d="M233-177c-1 41-23 64-60 70L243 0h-38l-65-103H63V0H30v-248c88 3 205-21 203 71zM63-129c60-2 137 13 137-47 0-61-80-42-137-45v92" id="A"/><g id="a"><use transform="matrix(0.0654320987654321,0,0,0.0654320987654321,0,0)" xlink:href="#u"/><use transform="matrix(0.0654320987654321,0,0,0.0654320987654321,16.946913580246914,0)" xlink:href="#v"/><use transform="matrix(0.0654320987654321,0,0,0.0654320987654321,30.88395061728395,0)" xlink:href="#w"/><use transform="matrix(0.0654320987654321,0,0,0.0654320987654321,43.446913580246914,0)" xlink:href="#v"/><use transform="matrix(0.0654320987654321,0,0,0.0654320987654321,59.150617283950616,0)" xlink:href="#x"/><use transform="matrix(0.0654320987654321,0,0,0.0654320987654321,76.09753086419752,0)" xlink:href="#y"/><use transform="matrix(0.0654320987654321,0,0,0.0654320987654321,91.80123456790123,0)" xlink:href="#z"/><use transform="matrix(0.0654320987654321,0,0,0.0654320987654321,108.74814814814815,0)" xlink:href="#w"/><use transform="matrix(0.0654320987654321,0,0,0.0654320987654321,123.07777777777778,0)" xlink:href="#y"/><use transform="matrix(0.0654320987654321,0,0,0.0654320987654321,138.78148148148148,0)" xlink:href="#A"/></g><path fill="#147eba" d="M27 0v-27h64v-190l-56 39v-29l58-41h29v221h61V0H27" id="B"/><use transform="matrix(0.0654320987654321,0,0,0.0654320987654321,0,0)" xlink:href="#B" id="b"/><path fill="#dd3522" d="M30 0v-248h187v28H63v79h144v27H63v87h162V0H30" id="C"/><path fill="#dd3522" d="M195 0l-74-108L45 0H8l94-129-87-119h37l69 98 67-98h37l-84 118L233 0h-38" id="D"/><path fill="#dd3522" d="M127-220V0H93v-220H8v-28h204v28h-85" id="E"/><path fill="#dd3522" d="M233-177c-1 41-23 64-60 70L243 0h-38l-65-103H63V0H30v-248c88 3 205-21 203 71zM63-129c60-2 137 13 137-47 0-61-80-42-137-45v92" id="F"/><path fill="#dd3522" d="M190 0L58-211 59 0H30v-248h39L202-35l-2-213h31V0h-41" id="G"/><path fill="#dd3522" d="M205 0l-28-72H64L36 0H1l101-248h38L239 0h-34zm-38-99l-47-123c-12 45-31 82-46 123h93" id="H"/><path fill="#dd3522" d="M30 0v-248h33v221h125V0H30" id="I"/><g id="c"><use transform="matrix(0.0654320987654321,0,0,0.0654320987654321,0,0)" xlink:href="#C"/><use transform="matrix(0.0654320987654321,0,0,0.0654320987654321,15.703703703703704,0)" xlink:href="#D"/><use transform="matrix(0.0654320987654321,0,0,0.0654320987654321,31.40740740740741,0)" xlink:href="#E"/><use transform="matrix(0.0654320987654321,0,0,0.0654320987654321,45.73703703703704,0)" xlink:href="#C"/><use transform="matrix(0.0654320987654321,0,0,0.0654320987654321,61.44074074074074,0)" xlink:href="#F"/><use transform="matrix(0.0654320987654321,0,0,0.0654320987654321,78.38765432098765,0)" xlink:href="#G"/><use transform="matrix(0.0654320987654321,0,0,0.0654320987654321,95.33456790123456,0)" xlink:href="#H"/><use transform="matrix(0.0654320987654321,0,0,0.0654320987654321,111.03827160493827,0)" xlink:href="#I"/></g><path fill="#dd3522" d="M185-189c-5-48-123-54-124 2 14 75 158 14 163 119 3 78-121 87-175 55-17-10-28-26-33-46l33-7c5 56 141 63 141-1 0-78-155-14-162-118-5-82 145-84 179-34 5 7 8 16 11 25" id="J"/><path fill="#dd3522" d="M137 0h-34L2-248h35l83 218 83-218h36" id="K"/><path fill="#dd3522" d="M33 0v-248h34V0H33" id="L"/><path fill="#dd3522" d="M212-179c-10-28-35-45-73-45-59 0-87 40-87 99 0 60 29 101 89 101 43 0 62-24 78-52l27 14C228-24 195 4 139 4 59 4 22-46 18-125c-6-104 99-153 187-111 19 9 31 26 39 46" id="M"/><g id="d"><use transform="matrix(0.0654320987654321,0,0,0.0654320987654321,0,0)" xlink:href="#J"/><use transform="matrix(0.0654320987654321,0,0,0.0654320987654321,15.703703703703704,0)" xlink:href="#C"/><use transform="matrix(0.0654320987654321,0,0,0.0654320987654321,31.40740740740741,0)" xlink:href="#F"/><use transform="matrix(0.0654320987654321,0,0,0.0654320987654321,47.8962962962963,0)" xlink:href="#K"/><use transform="matrix(0.0654320987654321,0,0,0.0654320987654321,63.6,0)" xlink:href="#L"/><use transform="matrix(0.0654320987654321,0,0,0.0654320987654321,70.14320987654321,0)" xlink:href="#M"/><use transform="matrix(0.0654320987654321,0,0,0.0654320987654321,87.09012345679012,0)" xlink:href="#C"/><use transform="matrix(0.0654320987654321,0,0,0.0654320987654321,102.79382716049383,0)" xlink:href="#J"/></g><path fill="#dd3522" d="M30-248c118-7 216 8 213 122C240-48 200 0 122 0H30v-248zM63-27c89 8 146-16 146-99s-60-101-146-95v194" id="N"/><g id="e"><use transform="matrix(0.0654320987654321,0,0,0.0654320987654321,0,0)" xlink:href="#C"/><use transform="matrix(0.0654320987654321,0,0,0.0654320987654321,15.703703703703704,0)" xlink:href="#G"/><use transform="matrix(0.0654320987654321,0,0,0.0654320987654321,32.650617283950616,0)" xlink:href="#N"/></g><path fill="#dd3522" d="M232-93c-1 65-40 97-104 97C67 4 28-28 28-90v-158h33c8 89-33 224 67 224 102 0 64-133 71-224h33v155" id="O"/><g id="f"><use transform="matrix(0.0654320987654321,0,0,0.0654320987654321,0,0)" xlink:href="#O"/><use transform="matrix(0.0654320987654321,0,0,0.0654320987654321,16.946913580246914,0)" xlink:href="#J"/><use transform="matrix(0.0654320987654321,0,0,0.0654320987654321,32.650617283950616,0)" xlink:href="#C"/><use transform="matrix(0.0654320987654321,0,0,0.0654320987654321,48.354320987654326,0)" xlink:href="#F"/><use transform="matrix(0.0654320987654321,0,0,0.0654320987654321,65.30123456790123,0)" xlink:href="#J"/></g><path fill="#147eba" d="M33 0v-248h34V0H33" id="P"/><path fill="#147eba" d="M143 4C61 4 22-44 18-125c-5-107 100-154 193-111 17 8 29 25 37 43l-32 9c-13-25-37-40-76-40-61 0-88 39-88 99 0 61 29 100 91 101 35 0 62-11 79-27v-45h-74v-28h105v86C228-13 192 4 143 4" id="Q"/><path fill="#147eba" d="M185-189c-5-48-123-54-124 2 14 75 158 14 163 119 3 78-121 87-175 55-17-10-28-26-33-46l33-7c5 56 141 63 141-1 0-78-155-14-162-118-5-82 145-84 179-34 5 7 8 16 11 25" id="R"/><g id="g"><use transform="matrix(0.0654320987654321,0,0,0.0654320987654321,0,0)" xlink:href="#P"/><use transform="matrix(0.0654320987654321,0,0,0.0654320987654321,6.5432098765432105,0)" xlink:href="#z"/><use transform="matrix(0.0654320987654321,0,0,0.0654320987654321,23.490123456790123,0)" xlink:href="#Q"/><use transform="matrix(0.0654320987654321,0,0,0.0654320987654321,41.81111111111111,0)" xlink:href="#A"/><use transform="matrix(0.0654320987654321,0,0,0.0654320987654321,58.758024691358024,0)" xlink:href="#y"/><use transform="matrix(0.0654320987654321,0,0,0.0654320987654321,74.46172839506173,0)" xlink:href="#R"/><use transform="matrix(0.0654320987654321,0,0,0.0654320987654321,90.16543209876544,0)" xlink:href="#R"/></g><path fill="#147eba" d="M266 0h-40l-56-210L115 0H75L2-248h35L96-30l15-64 43-154h32l59 218 59-218h35" id="S"/><path fill="#147eba" d="M137-103V0h-34v-103L8-248h37l75 118 75-118h37" id="T"/><g id="h"><use transform="matrix(0.0654320987654321,0,0,0.0654320987654321,0,0)" xlink:href="#Q"/><use transform="matrix(0.0654320987654321,0,0,0.0654320987654321,18.320987654320987,0)" xlink:href="#v"/><use transform="matrix(0.0654320987654321,0,0,0.0654320987654321,32.258024691358024,0)" xlink:href="#w"/><use transform="matrix(0.0654320987654321,0,0,0.0654320987654321,46.58765432098765,0)" xlink:href="#y"/><use transform="matrix(0.0654320987654321,0,0,0.0654320987654321,62.291358024691355,0)" xlink:href="#S"/><use transform="matrix(0.0654320987654321,0,0,0.0654320987654321,83.62222222222222,0)" xlink:href="#v"/><use transform="matrix(0.0654320987654321,0,0,0.0654320987654321,97.55925925925926,0)" xlink:href="#T"/></g><path d="M30-248c87 1 191-15 191 75 0 78-77 80-158 76V0H30v-248zm33 125c57 0 124 11 124-50 0-59-68-47-124-48v98" id="U"/><path d="M233-177c-1 41-23 64-60 70L243 0h-38l-65-103H63V0H30v-248c88 3 205-21 203 71zM63-129c60-2 137 13 137-47 0-61-80-42-137-45v92" id="V"/><path d="M140-251c81 0 123 46 123 126C263-46 219 4 140 4 59 4 17-45 17-125s42-126 123-126zm0 227c63 0 89-41 89-101s-29-99-89-99c-61 0-89 39-89 99S79-25 140-24" id="W"/><path d="M195 0l-74-108L45 0H8l94-129-87-119h37l69 98 67-98h37l-84 118L233 0h-38" id="X"/><path d="M137-103V0h-34v-103L8-248h37l75 118 75-118h37" id="Y"/><g id="i"><use transform="matrix(0.0654320987654321,0,0,0.0654320987654321,0,0)" xlink:href="#U"/><use transform="matrix(0.0654320987654321,0,0,0.0654320987654321,15.703703703703704,0)" xlink:href="#V"/><use transform="matrix(0.0654320987654321,0,0,0.0654320987654321,32.650617283950616,0)" xlink:href="#W"/><use transform="matrix(0.0654320987654321,0,0,0.0654320987654321,50.971604938271604,0)" xlink:href="#X"/><use transform="matrix(0.0654320987654321,0,0,0.0654320987654321,66.6753086419753,0)" xlink:href="#Y"/></g><path d="M205 0l-28-72H64L36 0H1l101-248h38L239 0h-34zm-38-99l-47-123c-12 45-31 82-46 123h93" id="Z"/><g id="j"><use transform="matrix(0.0654320987654321,0,0,0.0654320987654321,0,0)" xlink:href="#Z"/><use transform="matrix(0.0654320987654321,0,0,0.0654320987654321,15.703703703703704,0)" xlink:href="#U"/><use transform="matrix(0.0654320987654321,0,0,0.0654320987654321,31.40740740740741,0)" xlink:href="#U"/></g><path d="M212-179c-10-28-35-45-73-45-59 0-87 40-87 99 0 60 29 101 89 101 43 0 62-24 78-52l27 14C228-24 195 4 139 4 59 4 22-46 18-125c-6-104 99-153 187-111 19 9 31 26 39 46" id="aa"/><path d="M190 0L58-211 59 0H30v-248h39L202-35l-2-213h31V0h-41" id="ab"/><path d="M185-189c-5-48-123-54-124 2 14 75 158 14 163 119 3 78-121 87-175 55-17-10-28-26-33-46l33-7c5 56 141 63 141-1 0-78-155-14-162-118-5-82 145-84 179-34 5 7 8 16 11 25" id="ac"/><path d="M232-93c-1 65-40 97-104 97C67 4 28-28 28-90v-158h33c8 89-33 224 67 224 102 0 64-133 71-224h33v155" id="ad"/><path d="M30 0v-248h33v221h125V0H30" id="ae"/><g id="k"><use transform="matrix(0.0654320987654321,0,0,0.0654320987654321,0,0)" xlink:href="#aa"/><use transform="matrix(0.0654320987654321,0,0,0.0654320987654321,16.946913580246914,0)" xlink:href="#W"/><use transform="matrix(0.0654320987654321,0,0,0.0654320987654321,35.2679012345679,0)" xlink:href="#ab"/><use transform="matrix(0.0654320987654321,0,0,0.0654320987654321,52.214814814814815,0)" xlink:href="#ac"/><use transform="matrix(0.0654320987654321,0,0,0.0654320987654321,67.91851851851852,0)" xlink:href="#ad"/><use transform="matrix(0.0654320987654321,0,0,0.0654320987654321,84.86543209876544,0)" xlink:href="#ae"/></g><path d="M33 0v-248h34V0H33" id="af"/><path d="M30 0v-248h187v28H63v79h144v27H63v87h162V0H30" id="ag"/><path d="M127-220V0H93v-220H8v-28h204v28h-85" id="ah"/><g id="l"><use transform="matrix(0.0654320987654321,0,0,0.0654320987654321,0,0)" xlink:href="#aa"/><use transform="matrix(0.0654320987654321,0,0,0.0654320987654321,16.946913580246914,0)" xlink:href="#ae"/><use transform="matrix(0.0654320987654321,0,0,0.0654320987654321,30.033333333333335,0)" xlink:href="#af"/><use transform="matrix(0.0654320987654321,0,0,0.0654320987654321,36.57654320987655,0)" xlink:href="#ag"/><use transform="matrix(0.0654320987654321,0,0,0.0654320987654321,52.28024691358025,0)" xlink:href="#ab"/><use transform="matrix(0.0654320987654321,0,0,0.0654320987654321,69.22716049382717,0)" xlink:href="#ah"/></g><path d="M137 0h-34L2-248h35l83 218 83-218h36" id="ai"/><g id="m"><use transform="matrix(0.0654320987654321,0,0,0.0654320987654321,0,0)" xlink:href="#ac"/><use transform="matrix(0.0654320987654321,0,0,0.0654320987654321,15.703703703703704,0)" xlink:href="#ag"/><use transform="matrix(0.0654320987654321,0,0,0.0654320987654321,31.40740740740741,0)" xlink:href="#V"/><use transform="matrix(0.0654320987654321,0,0,0.0654320987654321,47.8962962962963,0)" xlink:href="#ai"/><use transform="matrix(0.0654320987654321,0,0,0.0654320987654321,63.6,0)" xlink:href="#ag"/><use transform="matrix(0.0654320987654321,0,0,0.0654320987654321,79.3037037037037,0)" xlink:href="#V"/></g><path fill="#ee4e8b" d="M24 0v-248h52v208h133V0H24" id="aj"/><path fill="#ee4e8b" d="M24 0v-248h195v40H76v63h132v40H76v65h150V0H24" id="ak"/><path fill="#ee4e8b" d="M199 0l-22-63H83L61 0H9l90-248h61L250 0h-51zm-33-102l-36-108c-10 38-24 72-36 108h72" id="al"/><path fill="#ee4e8b" d="M24-248c120-7 223 5 221 122C244-46 201 0 124 0H24v-248zM76-40c74 7 117-18 117-86 0-67-45-88-117-82v168" id="am"/><path fill="#ee4e8b" d="M240-174c0 40-23 61-54 70L253 0h-59l-57-94H76V0H24v-248c93 4 217-23 216 74zM76-134c48-2 112 12 112-38 0-48-66-32-112-35v73" id="an"/><g id="n"><use transform="matrix(0.0654320987654321,0,0,0.0654320987654321,0,0)" xlink:href="#aj"/><use transform="matrix(0.0654320987654321,0,0,0.0654320987654321,14.32962962962963,0)" xlink:href="#ak"/><use transform="matrix(0.0654320987654321,0,0,0.0654320987654321,30.033333333333335,0)" xlink:href="#al"/><use transform="matrix(0.0654320987654321,0,0,0.0654320987654321,46.980246913580245,0)" xlink:href="#am"/><use transform="matrix(0.0654320987654321,0,0,0.0654320987654321,63.92716049382716,0)" xlink:href="#ak"/><use transform="matrix(0.0654320987654321,0,0,0.0654320987654321,79.63086419753087,0)" xlink:href="#an"/></g><g id="o"><use transform="matrix(0.0654320987654321,0,0,0.0654320987654321,0,0)" xlink:href="#ac"/><use transform="matrix(0.0654320987654321,0,0,0.0654320987654321,15.703703703703704,0)" xlink:href="#ag"/><use transform="matrix(0.0654320987654321,0,0,0.0654320987654321,31.40740740740741,0)" xlink:href="#V"/><use transform="matrix(0.0654320987654321,0,0,0.0654320987654321,47.8962962962963,0)" xlink:href="#ai"/><use transform="matrix(0.0654320987654321,0,0,0.0654320987654321,63.6,0)" xlink:href="#ag"/><use transform="matrix(0.0654320987654321,0,0,0.0654320987654321,79.3037037037037,0)" xlink:href="#V"/></g><path fill="#dd3522" d="M186 0v-106H76V0H24v-248h52v99h110v-99h50V0h-50" id="ao"/><path fill="#dd3522" d="M136-208V0H84v-208H4v-40h212v40h-80" id="ap"/><path fill="#dd3522" d="M24-248c93 1 206-16 204 79-1 75-69 88-152 82V0H24v-248zm52 121c47 0 100 7 100-41 0-47-54-39-100-39v80" id="aq"/><g id="p"><use transform="matrix(0.06481481481481483,0,0,0.06481481481481483,0,0)" xlink:href="#ao"/><use transform="matrix(0.06481481481481483,0,0,0.06481481481481483,16.787037037037038,0)" xlink:href="#ap"/><use transform="matrix(0.06481481481481483,0,0,0.06481481481481483,30.98148148148148,0)" xlink:href="#ap"/><use transform="matrix(0.06481481481481483,0,0,0.06481481481481483,45.17592592592593,0)" xlink:href="#aq"/></g><path fill="#dd3522" d="M195-6C206 82 75 100 31 46c-4-6-6-13-8-21l49-6c3 16 16 24 34 25 40 0 42-37 40-79-11 22-30 35-61 35-53 0-70-43-70-97 0-56 18-96 73-97 30 0 46 14 59 34l2-30h47zm-90-29c32 0 41-27 41-63 0-35-9-62-40-62-32 0-39 29-40 63 0 36 9 62 39 62" id="ar"/><path fill="#dd3522" d="M240-174c0 40-23 61-54 70L253 0h-59l-57-94H76V0H24v-248c93 4 217-23 216 74zM76-134c48-2 112 12 112-38 0-48-66-32-112-35v73" id="as"/><path fill="#dd3522" d="M67-125c0 53 21 87 73 88 37 1 54-22 65-47l45 17C233-25 199 4 140 4 58 4 20-42 15-125 8-235 124-281 211-232c18 10 29 29 36 50l-46 12c-8-25-30-41-62-41-52 0-71 34-72 86" id="at"/><g id="q"><use transform="matrix(0.06481481481481483,0,0,0.06481481481481483,0,0)" xlink:href="#ar"/><use transform="matrix(0.06481481481481483,0,0,0.06481481481481483,14.194444444444446,0)" xlink:href="#as"/><use transform="matrix(0.06481481481481483,0,0,0.06481481481481483,30.98148148148148,0)" xlink:href="#aq"/><use transform="matrix(0.06481481481481483,0,0,0.06481481481481483,46.53703703703704,0)" xlink:href="#at"/></g><path fill="#147eba" d="M195-6C206 82 75 100 31 46c-4-6-6-13-8-21l49-6c3 16 16 24 34 25 40 0 42-37 40-79-11 22-30 35-61 35-53 0-70-43-70-97 0-56 18-96 73-97 30 0 46 14 59 34l2-30h47zm-90-29c32 0 41-27 41-63 0-35-9-62-40-62-32 0-39 29-40 63 0 36 9 62 39 62" id="au"/><path fill="#147eba" d="M240-174c0 40-23 61-54 70L253 0h-59l-57-94H76V0H24v-248c93 4 217-23 216 74zM76-134c48-2 112 12 112-38 0-48-66-32-112-35v73" id="av"/><path fill="#147eba" d="M24-248c93 1 206-16 204 79-1 75-69 88-152 82V0H24v-248zm52 121c47 0 100 7 100-41 0-47-54-39-100-39v80" id="aw"/><path fill="#147eba" d="M67-125c0 53 21 87 73 88 37 1 54-22 65-47l45 17C233-25 199 4 140 4 58 4 20-42 15-125 8-235 124-281 211-232c18 10 29 29 36 50l-46 12c-8-25-30-41-62-41-52 0-71 34-72 86" id="ax"/><g id="r"><use transform="matrix(0.06481481481481483,0,0,0.06481481481481483,0,0)" xlink:href="#au"/><use transform="matrix(0.06481481481481483,0,0,0.06481481481481483,14.194444444444446,0)" xlink:href="#av"/><use transform="matrix(0.06481481481481483,0,0,0.06481481481481483,30.98148148148148,0)" xlink:href="#aw"/><use transform="matrix(0.06481481481481483,0,0,0.06481481481481483,46.53703703703704,0)" xlink:href="#ax"/></g><path fill="#147eba" d="M220-157c-53 9-28 100-34 157h-49v-107c1-27-5-49-29-50C55-147 81-57 75 0H25l-1-190h47c2 12-1 28 3 38 10-53 101-56 108 0 13-22 24-43 59-42 82 1 51 116 57 194h-49v-107c-1-25-5-48-29-50" id="ay"/><path fill="#147eba" d="M136-208V0H84v-208H4v-40h212v40h-80" id="az"/><path fill="#147eba" d="M24 0v-248h52v208h133V0H24" id="aA"/><path fill="#147eba" d="M169-182c-1-43-94-46-97-3 18 66 151 10 154 114 3 95-165 93-204 36-6-8-10-19-12-30l50-8c3 46 112 56 116 5-17-69-150-10-154-114-4-87 153-88 188-35 5 8 8 18 10 28" id="aB"/><g id="s"><use transform="matrix(0.06481481481481483,0,0,0.06481481481481483,0,0)" xlink:href="#ay"/><use transform="matrix(0.06481481481481483,0,0,0.06481481481481483,20.740740740740744,0)" xlink:href="#az"/><use transform="matrix(0.06481481481481483,0,0,0.06481481481481483,34.93518518518519,0)" xlink:href="#aA"/><use transform="matrix(0.06481481481481483,0,0,0.06481481481481483,49.12962962962963,0)" xlink:href="#aB"/></g><g id="t"><use transform="matrix(0.06481481481481483,0,0,0.06481481481481483,0,0)" xlink:href="#ay"/><use transform="matrix(0.06481481481481483,0,0,0.06481481481481483,20.740740740740744,0)" xlink:href="#az"/><use transform="matrix(0.06481481481481483,0,0,0.06481481481481483,34.93518518518519,0)" xlink:href="#aA"/><use transform="matrix(0.06481481481481483,0,0,0.06481481481481483,49.12962962962963,0)" xlink:href="#aB"/></g></defs></g></svg>